<svg width="74" height="74" viewBox="0 0 74 74" fill="none" xmlns="http://www.w3.org/2000/svg">
<rect width="74" height="74" rx="37" fill="#ECEAF5"/>
<path fill-rule="evenodd" clip-rule="evenodd" d="M43.5486 43.421C49.5088 43.421 54.3419 39.0923 54.3419 33.749C54.3419 29.5869 50.4244 25.0195 46.7051 23.2064C46.6106 23.16 46.5397 23.0762 46.5098 22.9753C46.4799 22.8743 46.4935 22.7655 46.5475 22.675L47.9704 20.3051C48.1258 20.0452 48.1298 19.722 47.9808 19.4584C47.8318 19.1948 47.5527 19.0315 47.2499 19.0308H40.128C39.8241 19.0294 39.5431 19.1918 39.3926 19.4558C39.2421 19.7197 39.2455 20.0443 39.4015 20.3051L40.8169 22.663C40.8706 22.754 40.8836 22.8633 40.8528 22.9644C40.8219 23.0654 40.7501 23.1488 40.6548 23.1944C36.8544 24.9955 32.7509 29.5779 32.7509 33.749C32.7554 39.0923 37.5869 43.421 43.5486 43.421ZM42.9197 33.6649C41.4098 32.6503 39.9839 31.6897 39.9839 30.2923C39.9135 29.6512 40.138 29.0129 40.5942 28.557C41.0503 28.1011 41.6888 27.877 42.3299 27.9478C42.3815 27.947 42.4229 27.9049 42.4229 27.8533V27.2439C42.4229 26.6222 42.9269 26.1182 43.5486 26.1182C44.1703 26.1182 44.6743 26.6222 44.6743 27.2439V27.5726C44.6743 27.7798 44.8423 27.9478 45.0496 27.9478H45.9876C46.6094 27.9478 47.1133 28.4518 47.1133 29.0735C47.1133 29.6953 46.6094 30.1992 45.9876 30.1992H42.2818C42.2696 30.1992 42.2579 30.2042 42.2495 30.213C42.241 30.2217 42.2364 30.2336 42.2368 30.2458C42.2355 30.2835 42.2471 30.3206 42.2698 30.3508C42.8559 30.8956 43.495 31.3803 44.1775 31.7977C45.6875 32.8139 47.1133 33.7745 47.1133 35.1704C47.1652 35.8068 46.9349 36.4338 46.4836 36.8855C46.0322 37.3371 45.4053 37.5677 44.7689 37.5163C44.7172 37.5163 44.6751 37.5577 44.6743 37.6094V38.2203C44.6743 38.842 44.1703 39.346 43.5486 39.346C42.9269 39.346 42.4229 38.842 42.4229 38.2203V37.8916C42.4229 37.6843 42.2549 37.5163 42.0477 37.5163H41.1096C40.4879 37.5163 39.9839 37.0123 39.9839 36.3906C39.9839 35.7689 40.4879 35.2649 41.1096 35.2649H44.8154C44.8405 35.2649 44.8611 35.245 44.8619 35.2199C44.8625 35.1827 44.8509 35.1463 44.8289 35.1163C44.2433 34.5678 43.6036 34.08 42.9197 33.6604V33.6649ZM44.3846 47.8067L49.6694 46.0506C50.9265 45.6283 52.3133 45.9048 53.3122 46.7771C53.5133 46.9429 53.6164 47.1994 53.586 47.4581C53.5557 47.7169 53.396 47.9426 53.1621 48.0574C44.1475 52.618 41.3819 54.7347 38.4768 54.9474C35.9466 55.1328 33.3106 53.8738 26.3479 51.5276C25.9176 51.3844 25.4459 51.4394 25.0601 51.6777L20.2331 54.6945C20.1174 54.7672 19.9713 54.7713 19.8517 54.7051C19.7322 54.6389 19.658 54.513 19.6582 54.3763V46.2803C19.6586 46.1382 19.7386 46.0084 19.8653 45.9441L24.3952 43.6837C25.2288 43.2664 26.1481 43.0491 27.0803 43.0488H30.1648C32.9308 43.0488 34.6388 44.282 35.5265 44.923C35.8382 45.1481 36.0488 45.3002 36.1685 45.3002H41.4218C42.2507 45.3002 42.9227 45.9722 42.9227 46.8011C42.9227 47.6301 42.2507 48.3021 41.4218 48.3021H35.418C35.0036 48.3021 34.6676 48.6381 34.6676 49.0525C34.6676 49.467 35.0036 49.803 35.418 49.803H41.4218C42.6042 49.7993 43.6743 49.1017 44.155 48.0214C44.1976 47.9205 44.2811 47.8424 44.3846 47.8067Z" fill="#6756AE"/>
<mask id="mask0_3984_45503" style="mask-type:alpha" maskUnits="userSpaceOnUse" x="19" y="19" width="36" height="36">
<path fill-rule="evenodd" clip-rule="evenodd" d="M43.5486 43.421C49.5088 43.421 54.3419 39.0923 54.3419 33.749C54.3419 29.5869 50.4244 25.0195 46.7051 23.2064C46.6106 23.16 46.5397 23.0762 46.5098 22.9753C46.4799 22.8743 46.4935 22.7655 46.5475 22.675L47.9704 20.3051C48.1258 20.0452 48.1298 19.722 47.9808 19.4584C47.8318 19.1948 47.5527 19.0315 47.2499 19.0308H40.128C39.8241 19.0294 39.5431 19.1918 39.3926 19.4558C39.2421 19.7197 39.2455 20.0443 39.4015 20.3051L40.8169 22.663C40.8706 22.754 40.8836 22.8633 40.8528 22.9644C40.8219 23.0654 40.7501 23.1488 40.6548 23.1944C36.8544 24.9955 32.7509 29.5779 32.7509 33.749C32.7554 39.0923 37.5869 43.421 43.5486 43.421ZM42.9197 33.6649C41.4098 32.6503 39.9839 31.6897 39.9839 30.2923C39.9135 29.6512 40.138 29.0129 40.5942 28.557C41.0503 28.1011 41.6888 27.877 42.3299 27.9478C42.3815 27.947 42.4229 27.9049 42.4229 27.8533V27.2439C42.4229 26.6222 42.9269 26.1182 43.5486 26.1182C44.1703 26.1182 44.6743 26.6222 44.6743 27.2439V27.5726C44.6743 27.7798 44.8423 27.9478 45.0496 27.9478H45.9876C46.6094 27.9478 47.1133 28.4518 47.1133 29.0735C47.1133 29.6953 46.6094 30.1992 45.9876 30.1992H42.2818C42.2696 30.1992 42.2579 30.2042 42.2495 30.213C42.241 30.2217 42.2364 30.2336 42.2368 30.2458C42.2355 30.2835 42.2471 30.3206 42.2698 30.3508C42.8559 30.8956 43.495 31.3803 44.1775 31.7977C45.6875 32.8139 47.1133 33.7745 47.1133 35.1704C47.1652 35.8068 46.9349 36.4338 46.4836 36.8855C46.0322 37.3371 45.4053 37.5677 44.7689 37.5163C44.7172 37.5163 44.6751 37.5577 44.6743 37.6094V38.2203C44.6743 38.842 44.1703 39.346 43.5486 39.346C42.9269 39.346 42.4229 38.842 42.4229 38.2203V37.8916C42.4229 37.6843 42.2549 37.5163 42.0477 37.5163H41.1096C40.4879 37.5163 39.9839 37.0123 39.9839 36.3906C39.9839 35.7689 40.4879 35.2649 41.1096 35.2649H44.8154C44.8405 35.2649 44.8611 35.245 44.8619 35.2199C44.8625 35.1827 44.8509 35.1463 44.8289 35.1163C44.2433 34.5678 43.6036 34.08 42.9197 33.6604V33.6649ZM44.3846 47.8067L49.6694 46.0506C50.9265 45.6283 52.3133 45.9048 53.3122 46.7771C53.5133 46.9429 53.6164 47.1994 53.586 47.4581C53.5557 47.7169 53.396 47.9426 53.1621 48.0574C44.1475 52.618 41.3819 54.7347 38.4768 54.9474C35.9466 55.1328 33.3106 53.8738 26.3479 51.5276C25.9176 51.3844 25.4459 51.4394 25.0601 51.6777L20.2331 54.6945C20.1174 54.7672 19.9713 54.7713 19.8517 54.7051C19.7322 54.6389 19.658 54.513 19.6582 54.3763V46.2803C19.6586 46.1382 19.7386 46.0084 19.8653 45.9441L24.3952 43.6837C25.2288 43.2664 26.1481 43.0491 27.0803 43.0488H30.1648C32.9308 43.0488 34.6388 44.282 35.5265 44.923C35.8382 45.1481 36.0488 45.3002 36.1685 45.3002H41.4218C42.2507 45.3002 42.9227 45.9722 42.9227 46.8011C42.9227 47.6301 42.2507 48.3021 41.4218 48.3021H35.418C35.0036 48.3021 34.6676 48.6381 34.6676 49.0525C34.6676 49.467 35.0036 49.803 35.418 49.803H41.4218C42.6042 49.7993 43.6743 49.1017 44.155 48.0214C44.1976 47.9205 44.2811 47.8424 44.3846 47.8067Z" fill="white"/>
</mask>
<g mask="url(#mask0_3984_45503)">
</g>
</svg>
