<svg width="74" height="74" viewBox="0 0 74 74" fill="none" xmlns="http://www.w3.org/2000/svg">
<rect width="74" height="74" rx="37" fill="#D0F9E3"/>
<path fill-rule="evenodd" clip-rule="evenodd" d="M24.2421 53.135H49.758C52.6593 53.135 55.0113 50.7831 55.0113 47.8817V32.8724C55.0113 29.9711 52.6593 27.6191 49.758 27.6191H44.1295C44.0298 27.6195 43.9342 27.5801 43.8637 27.5096C43.7932 27.4392 43.7538 27.3435 43.7542 27.2439V25.3677C43.7542 22.8808 41.7383 20.8649 39.2514 20.8649H34.7486C32.2618 20.8649 30.2458 22.8808 30.2458 25.3677V27.2439C30.2462 27.3435 30.2068 27.4392 30.1363 27.5096C30.0659 27.5801 29.9702 27.6195 29.8706 27.6191H24.2421C21.3407 27.6191 18.9888 29.9711 18.9888 32.8724V47.8817C18.9888 50.7831 21.3407 53.135 24.2421 53.135ZM33.2477 25.3677C33.2477 24.5387 33.9197 23.8667 34.7486 23.8667H39.2514C40.0804 23.8667 40.7524 24.5387 40.7524 25.3677V27.2439C40.7528 27.3435 40.7134 27.4392 40.6429 27.5096C40.5724 27.5801 40.4768 27.6195 40.3771 27.6191H33.6229C33.5233 27.6195 33.4276 27.5801 33.3571 27.5096C33.2867 27.4392 33.2473 27.3435 33.2477 27.2439V25.3677ZM34.2038 40.9294L38.6511 42.5804C38.7864 42.787 38.8512 43.0319 38.8357 43.2784C38.8357 43.4375 38.8357 43.8787 37.8345 43.8787H33.6634C32.8345 43.8787 32.1625 44.5507 32.1625 45.3797C32.1625 46.2086 32.8345 46.8806 33.6634 46.8806H35.1284C35.228 46.8802 35.3237 46.9196 35.3941 46.9901C35.4646 47.0605 35.504 47.1562 35.5036 47.2559V47.8802C35.5036 48.7092 36.1756 49.3812 37.0045 49.3812C37.8335 49.3812 38.5055 48.7092 38.5055 47.8802V47.1583C38.5053 46.9796 38.6307 46.8254 38.8056 46.7891C40.5585 46.5492 41.8584 45.0415 41.8375 43.2724C41.9289 41.8125 41.1206 40.4445 39.7978 39.8202L35.3505 38.1692C35.2155 37.964 35.1503 37.7209 35.1644 37.4757C35.1644 37.3151 35.1644 36.8754 36.1655 36.8754H40.3366C41.1655 36.8754 41.8375 36.2034 41.8375 35.3744C41.8375 34.5455 41.1655 33.8735 40.3366 33.8735H38.8762C38.669 33.8735 38.501 33.7055 38.501 33.4983V32.8724C38.501 32.0434 37.829 31.3714 37 31.3714C36.1711 31.3714 35.4991 32.0434 35.4991 32.8724V33.5943C35.4998 33.7732 35.3742 33.9278 35.1989 33.9636C33.4463 34.2025 32.1455 35.7085 32.164 37.4772C32.0722 38.9372 32.8806 40.3054 34.2038 40.9294Z" fill="#1B9984"/>
<mask id="mask0_3984_45472" style="mask-type:alpha" maskUnits="userSpaceOnUse" x="18" y="20" width="38" height="34">
<path fill-rule="evenodd" clip-rule="evenodd" d="M24.2421 53.135H49.758C52.6593 53.135 55.0113 50.7831 55.0113 47.8817V32.8724C55.0113 29.9711 52.6593 27.6191 49.758 27.6191H44.1295C44.0298 27.6195 43.9342 27.5801 43.8637 27.5096C43.7932 27.4392 43.7538 27.3435 43.7542 27.2439V25.3677C43.7542 22.8808 41.7383 20.8649 39.2514 20.8649H34.7486C32.2618 20.8649 30.2458 22.8808 30.2458 25.3677V27.2439C30.2462 27.3435 30.2068 27.4392 30.1363 27.5096C30.0659 27.5801 29.9702 27.6195 29.8706 27.6191H24.2421C21.3407 27.6191 18.9888 29.9711 18.9888 32.8724V47.8817C18.9888 50.7831 21.3407 53.135 24.2421 53.135ZM33.2477 25.3677C33.2477 24.5387 33.9197 23.8667 34.7486 23.8667H39.2514C40.0804 23.8667 40.7524 24.5387 40.7524 25.3677V27.2439C40.7528 27.3435 40.7134 27.4392 40.6429 27.5096C40.5724 27.5801 40.4768 27.6195 40.3771 27.6191H33.6229C33.5233 27.6195 33.4276 27.5801 33.3571 27.5096C33.2867 27.4392 33.2473 27.3435 33.2477 27.2439V25.3677ZM34.2038 40.9294L38.6511 42.5804C38.7864 42.787 38.8512 43.0319 38.8357 43.2784C38.8357 43.4375 38.8357 43.8787 37.8345 43.8787H33.6634C32.8345 43.8787 32.1625 44.5507 32.1625 45.3797C32.1625 46.2086 32.8345 46.8806 33.6634 46.8806H35.1284C35.228 46.8802 35.3237 46.9196 35.3941 46.9901C35.4646 47.0605 35.504 47.1562 35.5036 47.2559V47.8802C35.5036 48.7092 36.1756 49.3812 37.0045 49.3812C37.8335 49.3812 38.5055 48.7092 38.5055 47.8802V47.1583C38.5053 46.9796 38.6307 46.8254 38.8056 46.7891C40.5585 46.5492 41.8584 45.0415 41.8375 43.2724C41.9289 41.8125 41.1206 40.4445 39.7978 39.8202L35.3505 38.1692C35.2155 37.964 35.1503 37.7209 35.1644 37.4757C35.1644 37.3151 35.1644 36.8754 36.1655 36.8754H40.3366C41.1655 36.8754 41.8375 36.2034 41.8375 35.3744C41.8375 34.5455 41.1655 33.8735 40.3366 33.8735H38.8762C38.669 33.8735 38.501 33.7055 38.501 33.4983V32.8724C38.501 32.0434 37.829 31.3714 37 31.3714C36.1711 31.3714 35.4991 32.0434 35.4991 32.8724V33.5943C35.4998 33.7732 35.3742 33.9278 35.1989 33.9636C33.4463 34.2025 32.1455 35.7085 32.164 37.4772C32.0722 38.9372 32.8806 40.3054 34.2038 40.9294Z" fill="white"/>
</mask>
<g mask="url(#mask0_3984_45472)">
</g>
</svg>
