<svg width="74" height="74" viewBox="0 0 74 74" fill="none" xmlns="http://www.w3.org/2000/svg">
<rect width="74" height="74" rx="37" fill="#D0E6F5"/>
<path fill-rule="evenodd" clip-rule="evenodd" d="M49.7581 24.2416H24.2422C23.954 24.2412 23.6915 24.0758 23.5667 23.816C23.442 23.5562 23.477 23.248 23.6568 23.0228L26.2084 19.8333C26.6341 19.2983 27.2808 18.9871 27.9645 18.9883H46.0358C46.7194 18.9871 47.3662 19.2983 47.7919 19.8333L50.345 23.0228C50.525 23.2482 50.5598 23.5568 50.4347 23.8167C50.3096 24.0766 50.0465 24.2417 49.7581 24.2416ZM24.2422 26.493H49.7581C50.1726 26.493 50.5086 26.829 50.5086 27.2434V52.7594C50.5086 54.0028 49.5006 55.0108 48.2572 55.0108H40.7525C40.338 55.0108 40.002 54.6748 40.002 54.2603V51.2584C40.002 49.6005 38.658 48.2566 37.0001 48.2566C35.3422 48.2566 33.9983 49.6005 33.9983 51.2584V54.2603C33.9983 54.6748 33.6623 55.0108 33.2478 55.0108H25.7431C24.4997 55.0108 23.4917 54.0028 23.4917 52.7594V27.2434C23.4917 26.829 23.8277 26.493 24.2422 26.493ZM30.9964 43.7538C30.9964 44.1682 30.6604 44.5042 30.2459 44.5042H27.244C26.8296 44.5042 26.4936 44.1682 26.4936 43.7538V40.7519C26.4936 39.5085 27.5016 38.5005 28.745 38.5005C29.9884 38.5005 30.9964 39.5085 30.9964 40.7519V43.7538ZM30.2459 35.4986C30.6604 35.4986 30.9964 35.1626 30.9964 34.7481V31.7463C30.9964 30.5028 29.9884 29.4948 28.745 29.4948C27.5016 29.4948 26.4936 30.5028 26.4936 31.7463V34.7481C26.4936 35.1626 26.8296 35.4986 27.244 35.4986H30.2459ZM39.2515 43.7538C39.2515 44.1682 38.9155 44.5042 38.5011 44.5042H35.4992C35.0847 44.5042 34.7487 44.1682 34.7487 43.7538V40.7519C34.7487 39.5085 35.7567 38.5005 37.0001 38.5005C38.2436 38.5005 39.2515 39.5085 39.2515 40.7519V43.7538ZM38.5011 35.4986C38.9155 35.4986 39.2515 35.1626 39.2515 34.7481V31.7463C39.2515 30.5028 38.2436 29.4948 37.0001 29.4948C35.7567 29.4948 34.7487 30.5028 34.7487 31.7463V34.7481C34.7487 35.1626 35.0847 35.4986 35.4992 35.4986H38.5011ZM47.5067 43.7538C47.5067 44.1682 47.1707 44.5042 46.7562 44.5042H43.7544C43.3399 44.5042 43.0039 44.1682 43.0039 43.7538V40.7519C43.0039 39.5085 44.0119 38.5005 45.2553 38.5005C46.4987 38.5005 47.5067 39.5085 47.5067 40.7519V43.7538ZM46.7562 35.4986C47.1707 35.4986 47.5067 35.1626 47.5067 34.7481V31.7463C47.5067 30.5028 46.4987 29.4948 45.2553 29.4948C44.0119 29.4948 43.0039 30.5028 43.0039 31.7463V34.7481C43.0039 35.1626 43.3399 35.4986 43.7544 35.4986H46.7562Z" fill="#3D628D"/>
<mask id="mask0_4603_53127" style="mask-type:alpha" maskUnits="userSpaceOnUse" x="23" y="18" width="28" height="38">
<path fill-rule="evenodd" clip-rule="evenodd" d="M49.7581 24.2416H24.2422C23.954 24.2412 23.6915 24.0758 23.5667 23.816C23.442 23.5562 23.477 23.248 23.6568 23.0228L26.2084 19.8333C26.6341 19.2983 27.2808 18.9871 27.9645 18.9883H46.0358C46.7194 18.9871 47.3662 19.2983 47.7919 19.8333L50.345 23.0228C50.525 23.2482 50.5598 23.5568 50.4347 23.8167C50.3096 24.0766 50.0465 24.2417 49.7581 24.2416ZM24.2422 26.493H49.7581C50.1726 26.493 50.5086 26.829 50.5086 27.2434V52.7594C50.5086 54.0028 49.5006 55.0108 48.2572 55.0108H40.7525C40.338 55.0108 40.002 54.6748 40.002 54.2603V51.2584C40.002 49.6005 38.658 48.2566 37.0001 48.2566C35.3422 48.2566 33.9983 49.6005 33.9983 51.2584V54.2603C33.9983 54.6748 33.6623 55.0108 33.2478 55.0108H25.7431C24.4997 55.0108 23.4917 54.0028 23.4917 52.7594V27.2434C23.4917 26.829 23.8277 26.493 24.2422 26.493ZM30.9964 43.7538C30.9964 44.1682 30.6604 44.5042 30.2459 44.5042H27.244C26.8296 44.5042 26.4936 44.1682 26.4936 43.7538V40.7519C26.4936 39.5085 27.5016 38.5005 28.745 38.5005C29.9884 38.5005 30.9964 39.5085 30.9964 40.7519V43.7538ZM30.2459 35.4986C30.6604 35.4986 30.9964 35.1626 30.9964 34.7481V31.7463C30.9964 30.5028 29.9884 29.4948 28.745 29.4948C27.5016 29.4948 26.4936 30.5028 26.4936 31.7463V34.7481C26.4936 35.1626 26.8296 35.4986 27.244 35.4986H30.2459ZM39.2515 43.7538C39.2515 44.1682 38.9155 44.5042 38.5011 44.5042H35.4992C35.0847 44.5042 34.7487 44.1682 34.7487 43.7538V40.7519C34.7487 39.5085 35.7567 38.5005 37.0001 38.5005C38.2436 38.5005 39.2515 39.5085 39.2515 40.7519V43.7538ZM38.5011 35.4986C38.9155 35.4986 39.2515 35.1626 39.2515 34.7481V31.7463C39.2515 30.5028 38.2436 29.4948 37.0001 29.4948C35.7567 29.4948 34.7487 30.5028 34.7487 31.7463V34.7481C34.7487 35.1626 35.0847 35.4986 35.4992 35.4986H38.5011ZM47.5067 43.7538C47.5067 44.1682 47.1707 44.5042 46.7562 44.5042H43.7544C43.3399 44.5042 43.0039 44.1682 43.0039 43.7538V40.7519C43.0039 39.5085 44.0119 38.5005 45.2553 38.5005C46.4987 38.5005 47.5067 39.5085 47.5067 40.7519V43.7538ZM46.7562 35.4986C47.1707 35.4986 47.5067 35.1626 47.5067 34.7481V31.7463C47.5067 30.5028 46.4987 29.4948 45.2553 29.4948C44.0119 29.4948 43.0039 30.5028 43.0039 31.7463V34.7481C43.0039 35.1626 43.3399 35.4986 43.7544 35.4986H46.7562Z" fill="white"/>
</mask>
<g mask="url(#mask0_4603_53127)">
</g>
</svg>
