<svg width="74" height="74" viewBox="0 0 74 74" fill="none" xmlns="http://www.w3.org/2000/svg">
<rect width="74" height="74" rx="37" fill="#D0E6F5"/>
<path fill-rule="evenodd" clip-rule="evenodd" d="M54.2607 18.9888H43.7541C43.3397 18.9888 43.0037 19.3248 43.0037 19.7392V54.2608C43.0037 54.6753 43.3397 55.0113 43.7541 55.0113H54.2607C54.6752 55.0113 55.0112 54.6753 55.0112 54.2608V19.7392C55.0112 19.3248 54.6752 18.9888 54.2607 18.9888ZM32.5932 30.621H23.0487C22.0804 30.6794 21.1317 30.3306 20.4319 29.6587C19.7322 28.9869 19.345 28.0532 19.3639 27.0833C19.3636 25.2966 20.6935 23.7891 22.4663 23.5666C23.1979 21.0781 25.48 19.3678 28.0738 19.364C30.0005 19.3697 31.7925 20.3533 32.8318 21.9756C35.0047 22.2727 36.6172 24.1399 36.5947 26.3329C36.5722 28.5258 34.9218 30.3596 32.7432 30.612C32.6935 30.6183 32.6433 30.6213 32.5932 30.621ZM27.2438 40.7524H21.7414C21.1351 40.7517 20.5879 41.1159 20.3545 41.6754L19.1042 44.6773C18.911 45.1406 18.9621 45.6698 19.2405 46.0875C19.5189 46.5053 19.9876 46.7562 20.4896 46.7561H27.2438C27.6583 46.7561 27.9943 46.4201 27.9943 46.0056V41.5028C27.9943 41.0884 27.6583 40.7524 27.2438 40.7524ZM20.4896 48.757C20.4896 48.4809 20.7135 48.257 20.9896 48.257H27.4943C27.7704 48.257 27.9943 48.4809 27.9943 48.757V54.5113C27.9943 54.7874 27.7704 55.0113 27.4943 55.0113H20.9896C20.7135 55.0113 20.4896 54.7874 20.4896 54.5113V48.757ZM46.756 46.3809C47.3777 46.3809 47.8817 45.8769 47.8817 45.2552V43.7542C47.8817 43.1325 47.3777 42.6285 46.756 42.6285C46.1343 42.6285 45.6303 43.1325 45.6303 43.7542V45.2552C45.6303 45.8769 46.1343 46.3809 46.756 46.3809ZM47.8817 38.501C47.8817 39.1227 47.3777 39.6267 46.756 39.6267C46.1343 39.6267 45.6303 39.1227 45.6303 38.501V37C45.6303 36.3783 46.1343 35.8743 46.756 35.8743C47.3777 35.8743 47.8817 36.3783 47.8817 37V38.501ZM46.756 32.8724C47.3777 32.8724 47.8817 32.3684 47.8817 31.7467V30.2458C47.8817 29.6241 47.3777 29.1201 46.756 29.1201C46.1343 29.1201 45.6303 29.6241 45.6303 30.2458V31.7467C45.6303 32.3684 46.1343 32.8724 46.756 32.8724ZM47.8817 24.9925C47.8817 25.6142 47.3777 26.1182 46.756 26.1182C46.1343 26.1182 45.6303 25.6142 45.6303 24.9925V23.4916C45.6303 22.8699 46.1343 22.3659 46.756 22.3659C47.3777 22.3659 47.8817 22.8699 47.8817 23.4916V24.9925ZM51.2588 46.3809C51.8805 46.3809 52.3845 45.8769 52.3845 45.2552V43.7542C52.3845 43.1325 51.8805 42.6285 51.2588 42.6285C50.6371 42.6285 50.1331 43.1325 50.1331 43.7542V45.2552C50.1331 45.8769 50.6371 46.3809 51.2588 46.3809ZM52.3845 38.501C52.3845 39.1227 51.8805 39.6267 51.2588 39.6267C50.6371 39.6267 50.1331 39.1227 50.1331 38.501V37C50.1331 36.3783 50.6371 35.8743 51.2588 35.8743C51.8805 35.8743 52.3845 36.3783 52.3845 37V38.501ZM51.2588 32.8724C51.8805 32.8724 52.3845 32.3684 52.3845 31.7467V30.2458C52.3845 29.6241 51.8805 29.1201 51.2588 29.1201C50.6371 29.1201 50.1331 29.6241 50.1331 30.2458V31.7467C50.1331 32.3684 50.6371 32.8724 51.2588 32.8724ZM52.3845 24.9925C52.3845 25.6142 51.8805 26.1182 51.2588 26.1182C50.6371 26.1182 50.1331 25.6142 50.1331 24.9925V23.4916C50.1331 22.8699 50.6371 22.3659 51.2588 22.3659C51.8805 22.3659 52.3845 22.8699 52.3845 23.4916V24.9925ZM34.9691 34.2173C35.2622 33.9243 35.7372 33.9243 36.0303 34.2173L41.2836 39.4706C41.4242 39.6116 41.5031 39.8027 41.5027 40.0019V54.2608C41.5027 54.6753 41.1667 55.0113 40.7523 55.0113H30.2457C29.8312 55.0113 29.4952 54.6753 29.4952 54.2608V40.0019C29.4953 39.8025 29.5746 39.6113 29.7159 39.4706L34.9691 34.2173ZM34.3733 50.5085C34.3733 51.1302 33.8693 51.6342 33.2476 51.6342C32.6259 51.6342 32.1219 51.1302 32.1219 50.5085V49.0075C32.1219 48.3858 32.6259 47.8818 33.2476 47.8818C33.8693 47.8818 34.3733 48.3858 34.3733 49.0075V50.5085ZM33.2476 44.8799C33.8693 44.8799 34.3733 44.3759 34.3733 43.7542V42.2533C34.3733 41.6316 33.8693 41.1276 33.2476 41.1276C32.6259 41.1276 32.1219 41.6316 32.1219 42.2533V43.7542C32.1219 44.3759 32.6259 44.8799 33.2476 44.8799ZM38.8761 50.5085C38.8761 51.1302 38.3721 51.6342 37.7504 51.6342C37.1287 51.6342 36.6247 51.1302 36.6247 50.5085V49.0075C36.6247 48.3858 37.1287 47.8818 37.7504 47.8818C38.3721 47.8818 38.8761 48.3858 38.8761 49.0075V50.5085ZM37.7504 44.8799C38.3721 44.8799 38.8761 44.3759 38.8761 43.7542V42.2533C38.8761 41.6316 38.3721 41.1276 37.7504 41.1276C37.1287 41.1276 36.6247 41.6316 36.6247 42.2533V43.7542C36.6247 44.3759 37.1287 44.8799 37.7504 44.8799Z" fill="#3D628D"/>
<mask id="mask0_3984_45375" style="mask-type:alpha" maskUnits="userSpaceOnUse" x="18" y="18" width="38" height="38">
<path fill-rule="evenodd" clip-rule="evenodd" d="M54.2607 18.9888H43.7541C43.3397 18.9888 43.0037 19.3248 43.0037 19.7392V54.2608C43.0037 54.6753 43.3397 55.0113 43.7541 55.0113H54.2607C54.6752 55.0113 55.0112 54.6753 55.0112 54.2608V19.7392C55.0112 19.3248 54.6752 18.9888 54.2607 18.9888ZM32.5932 30.621H23.0487C22.0804 30.6794 21.1317 30.3306 20.4319 29.6587C19.7322 28.9869 19.345 28.0532 19.3639 27.0833C19.3636 25.2966 20.6935 23.7891 22.4663 23.5666C23.1979 21.0781 25.48 19.3678 28.0738 19.364C30.0005 19.3697 31.7925 20.3533 32.8318 21.9756C35.0047 22.2727 36.6172 24.1399 36.5947 26.3329C36.5722 28.5258 34.9218 30.3596 32.7432 30.612C32.6935 30.6183 32.6433 30.6213 32.5932 30.621ZM27.2438 40.7524H21.7414C21.1351 40.7517 20.5879 41.1159 20.3545 41.6754L19.1042 44.6773C18.911 45.1406 18.9621 45.6698 19.2405 46.0875C19.5189 46.5053 19.9876 46.7562 20.4896 46.7561H27.2438C27.6583 46.7561 27.9943 46.4201 27.9943 46.0056V41.5028C27.9943 41.0884 27.6583 40.7524 27.2438 40.7524ZM20.4896 48.757C20.4896 48.4809 20.7135 48.257 20.9896 48.257H27.4943C27.7704 48.257 27.9943 48.4809 27.9943 48.757V54.5113C27.9943 54.7874 27.7704 55.0113 27.4943 55.0113H20.9896C20.7135 55.0113 20.4896 54.7874 20.4896 54.5113V48.757ZM46.756 46.3809C47.3777 46.3809 47.8817 45.8769 47.8817 45.2552V43.7542C47.8817 43.1325 47.3777 42.6285 46.756 42.6285C46.1343 42.6285 45.6303 43.1325 45.6303 43.7542V45.2552C45.6303 45.8769 46.1343 46.3809 46.756 46.3809ZM47.8817 38.501C47.8817 39.1227 47.3777 39.6267 46.756 39.6267C46.1343 39.6267 45.6303 39.1227 45.6303 38.501V37C45.6303 36.3783 46.1343 35.8743 46.756 35.8743C47.3777 35.8743 47.8817 36.3783 47.8817 37V38.501ZM46.756 32.8724C47.3777 32.8724 47.8817 32.3684 47.8817 31.7467V30.2458C47.8817 29.6241 47.3777 29.1201 46.756 29.1201C46.1343 29.1201 45.6303 29.6241 45.6303 30.2458V31.7467C45.6303 32.3684 46.1343 32.8724 46.756 32.8724ZM47.8817 24.9925C47.8817 25.6142 47.3777 26.1182 46.756 26.1182C46.1343 26.1182 45.6303 25.6142 45.6303 24.9925V23.4916C45.6303 22.8699 46.1343 22.3659 46.756 22.3659C47.3777 22.3659 47.8817 22.8699 47.8817 23.4916V24.9925ZM51.2588 46.3809C51.8805 46.3809 52.3845 45.8769 52.3845 45.2552V43.7542C52.3845 43.1325 51.8805 42.6285 51.2588 42.6285C50.6371 42.6285 50.1331 43.1325 50.1331 43.7542V45.2552C50.1331 45.8769 50.6371 46.3809 51.2588 46.3809ZM52.3845 38.501C52.3845 39.1227 51.8805 39.6267 51.2588 39.6267C50.6371 39.6267 50.1331 39.1227 50.1331 38.501V37C50.1331 36.3783 50.6371 35.8743 51.2588 35.8743C51.8805 35.8743 52.3845 36.3783 52.3845 37V38.501ZM51.2588 32.8724C51.8805 32.8724 52.3845 32.3684 52.3845 31.7467V30.2458C52.3845 29.6241 51.8805 29.1201 51.2588 29.1201C50.6371 29.1201 50.1331 29.6241 50.1331 30.2458V31.7467C50.1331 32.3684 50.6371 32.8724 51.2588 32.8724ZM52.3845 24.9925C52.3845 25.6142 51.8805 26.1182 51.2588 26.1182C50.6371 26.1182 50.1331 25.6142 50.1331 24.9925V23.4916C50.1331 22.8699 50.6371 22.3659 51.2588 22.3659C51.8805 22.3659 52.3845 22.8699 52.3845 23.4916V24.9925ZM34.9691 34.2173C35.2622 33.9243 35.7372 33.9243 36.0303 34.2173L41.2836 39.4706C41.4242 39.6116 41.5031 39.8027 41.5027 40.0019V54.2608C41.5027 54.6753 41.1667 55.0113 40.7523 55.0113H30.2457C29.8312 55.0113 29.4952 54.6753 29.4952 54.2608V40.0019C29.4953 39.8025 29.5746 39.6113 29.7159 39.4706L34.9691 34.2173ZM34.3733 50.5085C34.3733 51.1302 33.8693 51.6342 33.2476 51.6342C32.6259 51.6342 32.1219 51.1302 32.1219 50.5085V49.0075C32.1219 48.3858 32.6259 47.8818 33.2476 47.8818C33.8693 47.8818 34.3733 48.3858 34.3733 49.0075V50.5085ZM33.2476 44.8799C33.8693 44.8799 34.3733 44.3759 34.3733 43.7542V42.2533C34.3733 41.6316 33.8693 41.1276 33.2476 41.1276C32.6259 41.1276 32.1219 41.6316 32.1219 42.2533V43.7542C32.1219 44.3759 32.6259 44.8799 33.2476 44.8799ZM38.8761 50.5085C38.8761 51.1302 38.3721 51.6342 37.7504 51.6342C37.1287 51.6342 36.6247 51.1302 36.6247 50.5085V49.0075C36.6247 48.3858 37.1287 47.8818 37.7504 47.8818C38.3721 47.8818 38.8761 48.3858 38.8761 49.0075V50.5085ZM37.7504 44.8799C38.3721 44.8799 38.8761 44.3759 38.8761 43.7542V42.2533C38.8761 41.6316 38.3721 41.1276 37.7504 41.1276C37.1287 41.1276 36.6247 41.6316 36.6247 42.2533V43.7542C36.6247 44.3759 37.1287 44.8799 37.7504 44.8799Z" fill="white"/>
</mask>
<g mask="url(#mask0_3984_45375)">
</g>
</svg>
