<svg width="74" height="74" viewBox="0 0 74 74" fill="none" xmlns="http://www.w3.org/2000/svg">
<rect width="74" height="74" rx="37" fill="#D0F9E3"/>
<path d="M56.9999 28.6664C56.7459 28.6674 56.4951 28.6104 56.2665 28.4997L36.9999 18.6664L17.7332 28.4331C17.3221 28.6276 16.8506 28.6508 16.4224 28.4976C15.9942 28.3445 15.6444 28.0275 15.4499 27.6164C15.2554 27.2053 15.2322 26.7338 15.3853 26.3056C15.5385 25.8774 15.8555 25.5276 16.2665 25.3331L36.9999 15.0664L57.7332 25.3331C58.1703 25.4352 58.5495 25.7053 58.7888 26.085C59.0281 26.4647 59.1082 26.9234 59.0118 27.3617C58.9153 27.8 58.6501 28.1827 58.2736 28.4269C57.897 28.6711 57.4394 28.7572 56.9999 28.6664ZM28.6665 45.3331H18.6665V55.3331H28.6665V45.3331ZM41.9999 45.3331H31.9999V55.3331H41.9999V45.3331ZM55.3332 45.3331H45.3332V55.3331H55.3332V45.3331ZM48.6665 31.9997H38.6665V41.9997H48.6665V31.9997ZM35.3332 31.9997H25.3332V41.9997H35.3332V31.9997Z" fill="#13837B"/>
</svg>
