<svg width="23" height="22" viewBox="0 0 23 22" fill="none" xmlns="http://www.w3.org/2000/svg">
<path fill-rule="evenodd" clip-rule="evenodd" d="M16.8005 4.15175L18.0987 5.45057C18.6935 6.04718 18.6935 7.01252 18.0987 7.60914L17.2329 8.47684C17.1135 8.5962 16.9199 8.5962 16.8005 8.47684L13.7736 5.45057C13.6543 5.33117 13.6543 5.13763 13.7736 5.01824L14.6407 4.15175C15.2375 3.55619 16.2038 3.55619 16.8005 4.15175ZM13.1255 6.09997C13.0682 6.04222 12.9903 6.00965 12.909 6.00947C12.8278 6.00949 12.7499 6.04183 12.6925 6.09936L6.01379 12.7799C5.89443 12.8993 5.89443 13.0929 6.01379 13.2122L9.03946 16.2379C9.15885 16.3573 9.35239 16.3573 9.47179 16.2379L16.1475 9.56224C16.2664 9.44292 16.2664 9.24985 16.1475 9.13053L13.1255 6.09997ZM5.39802 13.9356C5.31972 13.8576 5.20538 13.8279 5.099 13.858C4.99244 13.8879 4.91035 13.973 4.88436 14.0806L3.96346 17.9189C3.93874 18.0223 3.96954 18.1312 4.04478 18.2063C4.12047 18.2806 4.22889 18.3111 4.33219 18.287L8.16747 17.3698C8.27516 17.344 8.3605 17.262 8.39057 17.1555C8.42064 17.0489 8.39073 16.9344 8.31239 16.8561L5.39802 13.9356Z" fill="#897CC0"/>
<mask id="mask0_1817_37075" style="mask-type:alpha" maskUnits="userSpaceOnUse" x="3" y="3" width="16" height="16">
<path fill-rule="evenodd" clip-rule="evenodd" d="M16.8005 4.15175L18.0987 5.45057C18.6935 6.04718 18.6935 7.01252 18.0987 7.60914L17.2329 8.47684C17.1135 8.5962 16.9199 8.5962 16.8005 8.47684L13.7736 5.45057C13.6543 5.33117 13.6543 5.13763 13.7736 5.01824L14.6407 4.15175C15.2375 3.55619 16.2038 3.55619 16.8005 4.15175ZM13.1255 6.09997C13.0682 6.04222 12.9903 6.00965 12.909 6.00947C12.8278 6.00949 12.7499 6.04183 12.6925 6.09936L6.01379 12.7799C5.89443 12.8993 5.89443 13.0929 6.01379 13.2122L9.03946 16.2379C9.15885 16.3573 9.35239 16.3573 9.47179 16.2379L16.1475 9.56224C16.2664 9.44292 16.2664 9.24985 16.1475 9.13053L13.1255 6.09997ZM5.39802 13.9356C5.31972 13.8576 5.20538 13.8279 5.099 13.858C4.99244 13.8879 4.91035 13.973 4.88436 14.0806L3.96346 17.9189C3.93874 18.0223 3.96954 18.1312 4.04478 18.2063C4.12047 18.2806 4.22889 18.3111 4.33219 18.287L8.16747 17.3698C8.27516 17.344 8.3605 17.262 8.39057 17.1555C8.42064 17.0489 8.39073 16.9344 8.31239 16.8561L5.39802 13.9356Z" fill="white"/>
</mask>
<g mask="url(#mask0_1817_37075)">
</g>
</svg>
