<svg width="24" height="25" viewBox="0 0 24 25" fill="none" xmlns="http://www.w3.org/2000/svg">
<g clip-path="url(#clip0_5793_6655)">
<path fill-rule="evenodd" clip-rule="evenodd" d="M12 2.25V8.75C12 9.12288 12.1389 9.48239 12.3896 9.75842C12.6403 10.0344 12.9848 10.2072 13.356 10.243L13.5 10.25H20V20.25C20.0002 20.7546 19.8096 21.2406 19.4665 21.6105C19.1234 21.9805 18.6532 22.2072 18.15 22.245L18 22.25H6C5.49542 22.2502 5.00943 22.0596 4.63945 21.7165C4.26947 21.3734 4.04284 20.9032 4.005 20.4L4 20.25V4.25C3.99984 3.74542 4.19041 3.25943 4.5335 2.88945C4.87659 2.51947 5.34684 2.29284 5.85 2.255L6 2.25H12ZM12 11.75C11.7551 11.75 11.5187 11.84 11.3356 12.0027C11.1526 12.1655 11.0357 12.3897 11.007 12.633L11 12.75V14.25H9.5C9.24512 14.2503 8.99997 14.3479 8.81463 14.5228C8.6293 14.6978 8.51776 14.937 8.50283 15.1914C8.48789 15.4458 8.57067 15.6964 8.73426 15.8918C8.89785 16.0873 9.1299 16.2129 9.383 16.243L9.5 16.25H11V17.75C11.0003 18.0049 11.0979 18.25 11.2728 18.4354C11.4478 18.6207 11.687 18.7322 11.9414 18.7472C12.1958 18.7621 12.4464 18.6793 12.6418 18.5157C12.8373 18.3521 12.9629 18.1201 12.993 17.867L13 17.75V16.25H14.5C14.7549 16.2497 15 16.1521 15.1854 15.9772C15.3707 15.8022 15.4822 15.563 15.4972 15.3086C15.5121 15.0542 15.4293 14.8036 15.2657 14.6082C15.1021 14.4127 14.8701 14.2871 14.617 14.257L14.5 14.25H13V12.75C13 12.4848 12.8946 12.2304 12.7071 12.0429C12.5196 11.8554 12.2652 11.75 12 11.75ZM14 2.293C14.3234 2.36165 14.6247 2.50939 14.877 2.723L15 2.836L19.414 7.25C19.6483 7.48411 19.8208 7.77275 19.916 8.09L19.956 8.25H14V2.293Z" fill="#9E9E9E"/>
</g>
<defs>
<clipPath id="clip0_5793_6655">
<rect width="24" height="24" fill="white" transform="translate(0 0.25)"/>
</clipPath>
</defs>
</svg>
