<svg width="21" height="20" viewBox="0 0 21 20" fill="none" xmlns="http://www.w3.org/2000/svg">
<path d="M19.1387 18.3337L17.472 16.667M10.3887 17.5003C11.4283 17.5003 12.4578 17.2956 13.4183 16.8977C14.3788 16.4999 15.2515 15.9167 15.9866 15.1816C16.7218 14.4465 17.3049 13.5737 17.7028 12.6132C18.1006 11.6527 18.3054 10.6233 18.3054 9.58366C18.3054 8.54403 18.1006 7.51458 17.7028 6.55408C17.3049 5.59359 16.7218 4.72086 15.9866 3.98573C15.2515 3.2506 14.3788 2.66746 13.4183 2.26961C12.4578 1.87176 11.4283 1.66699 10.3887 1.66699C8.28908 1.66699 6.27545 2.50107 4.79078 3.98573C3.30612 5.47039 2.47205 7.48403 2.47205 9.58366C2.47205 11.6833 3.30612 13.6969 4.79078 15.1816C6.27545 16.6662 8.28908 17.5003 10.3887 17.5003Z" stroke="#C2C2C2" stroke-width="1.5" stroke-linecap="round" stroke-linejoin="round"/>
</svg>
