<svg width="16" height="16" viewBox="0 0 16 16" fill="none" xmlns="http://www.w3.org/2000/svg">
<path d="M8.875 8.625H7.625V4.875H8.875M8.875 11.125H7.625V9.875H8.875M8.25 1.75C7.42924 1.75 6.61651 1.91166 5.85823 2.22575C5.09994 2.53984 4.41095 3.00022 3.83058 3.58058C2.65848 4.75268 2 6.3424 2 8C2 9.6576 2.65848 11.2473 3.83058 12.4194C4.41095 12.9998 5.09994 13.4602 5.85823 13.7742C6.61651 14.0883 7.42924 14.25 8.25 14.25C9.9076 14.25 11.4973 13.5915 12.6694 12.4194C13.8415 11.2473 14.5 9.6576 14.5 8C14.5 7.17924 14.3383 6.36651 14.0242 5.60823C13.7102 4.84994 13.2498 4.16095 12.6694 3.58058C12.0891 3.00022 11.4001 2.53984 10.6418 2.22575C9.88349 1.91166 9.07076 1.75 8.25 1.75Z" fill="#EE2D24"/>
</svg>
