<svg width="21" height="18" viewBox="0 0 21 18" fill="none" xmlns="http://www.w3.org/2000/svg">
<path d="M3.20837 6.4585V8.54183H5.29171V6.4585H3.20837ZM6.33337 6.4585V8.54183H8.41671V6.4585H6.33337ZM9.45837 6.4585V8.54183H11.5417V6.4585H9.45837ZM3.20837 3.3335V5.41683H5.29171V3.3335H3.20837ZM6.33337 3.3335V5.41683H8.41671V3.3335H6.33337ZM9.45837 3.3335V5.41683H11.5417V3.3335H9.45837ZM12.5834 3.3335V5.41683H14.6667V3.3335H12.5834ZM15.7084 3.3335V5.41683H17.7917V3.3335H15.7084ZM16.75 17.9168L15.2917 16.4585L16.9323 14.7918H12.5834V12.7085H16.9323L15.2917 11.0418L16.75 9.5835L20.9167 13.7502L16.75 17.9168ZM10.6042 14.7918H2.16671C1.59379 14.7918 1.10351 14.588 0.695874 14.1804C0.287541 13.772 0.083374 13.2814 0.083374 12.7085V2.29183C0.083374 1.71891 0.287541 1.22863 0.695874 0.820996C1.10351 0.412663 1.59379 0.208496 2.16671 0.208496H18.8334C19.4063 0.208496 19.8969 0.412663 20.3052 0.820996C20.7129 1.22863 20.9167 1.71891 20.9167 2.29183V9.0887C20.4653 8.6894 19.975 8.3637 19.4459 8.11162C18.916 7.86023 18.3646 7.69113 17.7917 7.60433V6.4585H15.7084V7.60433C15.5174 7.63905 15.3396 7.67377 15.175 7.7085C15.0098 7.74322 14.8403 7.7953 14.6667 7.86475V6.4585H12.5834V8.54183H13.3125C13.0868 8.68072 12.8785 8.84113 12.6875 9.02308C12.4966 9.20572 12.3056 9.39252 12.1146 9.5835H6.33337V11.6668H10.8646C10.7431 11.9967 10.6563 12.3352 10.6042 12.6825C10.5521 13.0297 10.5261 13.3856 10.5261 13.7502C10.5261 13.9411 10.5306 14.1189 10.5396 14.2835C10.548 14.4488 10.5695 14.6182 10.6042 14.7918Z" fill="#6756AE"/>
</svg>
