<svg width="23" height="17" viewBox="0 0 23 17" fill="none" xmlns="http://www.w3.org/2000/svg">
<path d="M13.5834 9.5415C14.4514 9.5415 15.1893 9.23769 15.7969 8.63005C16.4045 8.02241 16.7084 7.28456 16.7084 6.4165C16.7084 5.54845 16.4045 4.8106 15.7969 4.20296C15.1893 3.59532 14.4514 3.2915 13.5834 3.2915C12.7153 3.2915 11.9775 3.59532 11.3698 4.20296C10.7622 4.8106 10.4584 5.54845 10.4584 6.4165C10.4584 7.28456 10.7622 8.02241 11.3698 8.63005C11.9775 9.23769 12.7153 9.5415 13.5834 9.5415ZM6.29169 12.6665C5.71877 12.6665 5.22849 12.4623 4.82085 12.054C4.41252 11.6464 4.20835 11.1561 4.20835 10.5832V2.24984C4.20835 1.67692 4.41252 1.18664 4.82085 0.779004C5.22849 0.37067 5.71877 0.166504 6.29169 0.166504H20.875C21.4479 0.166504 21.9386 0.37067 22.3469 0.779004C22.7545 1.18664 22.9584 1.67692 22.9584 2.24984V10.5832C22.9584 11.1561 22.7545 11.6464 22.3469 12.054C21.9386 12.4623 21.4479 12.6665 20.875 12.6665H6.29169ZM2.12502 16.8332C1.5521 16.8332 1.06183 16.6294 0.654187 16.2217C0.245854 15.8134 0.041687 15.3228 0.041687 14.7498V4.33317C0.041687 4.03803 0.141687 3.79046 0.341687 3.59046C0.540993 3.39116 0.788215 3.2915 1.08335 3.2915C1.37849 3.2915 1.62606 3.39116 1.82606 3.59046C2.02537 3.79046 2.12502 4.03803 2.12502 4.33317V14.7498H18.7917C19.0868 14.7498 19.334 14.8498 19.5334 15.0498C19.7334 15.2491 19.8334 15.4964 19.8334 15.7915C19.8334 16.0866 19.7334 16.3339 19.5334 16.5332C19.334 16.7332 19.0868 16.8332 18.7917 16.8332H2.12502ZM6.29169 4.33317C6.8646 4.33317 7.35488 4.129 7.76252 3.72067C8.17085 3.31303 8.37502 2.82275 8.37502 2.24984H6.29169V4.33317ZM20.875 4.33317V2.24984H18.7917C18.7917 2.82275 18.9955 3.31303 19.4031 3.72067C19.8115 4.129 20.3021 4.33317 20.875 4.33317ZM6.29169 10.5832H8.37502C8.37502 10.0103 8.17085 9.51963 7.76252 9.1113C7.35488 8.70366 6.8646 8.49984 6.29169 8.49984V10.5832ZM18.7917 10.5832H20.875V8.49984C20.3021 8.49984 19.8115 8.70366 19.4031 9.1113C18.9955 9.51963 18.7917 10.0103 18.7917 10.5832Z" fill="#13837B"/>
</svg>
