<svg width="25" height="26" viewBox="0 0 25 26" fill="none" xmlns="http://www.w3.org/2000/svg">
<path d="M3.125 10.9167C3.125 11.8742 3.3136 12.8224 3.68005 13.7071C4.04649 14.5917 4.58359 15.3956 5.26068 16.0727C5.93777 16.7497 6.7416 17.2868 7.62627 17.6533C8.51093 18.0197 9.45911 18.2083 10.4167 18.2083C11.3742 18.2083 12.3224 18.0197 13.2071 17.6533C14.0917 17.2868 14.8956 16.7497 15.5727 16.0727C16.2497 15.3956 16.7868 14.5917 17.1533 13.7071C17.5197 12.8224 17.7083 11.8742 17.7083 10.9167C17.7083 9.95911 17.5197 9.01093 17.1533 8.12627C16.7868 7.2416 16.2497 6.43777 15.5727 5.76068C14.8956 5.08359 14.0917 4.54649 13.2071 4.18004C12.3224 3.8136 11.3742 3.625 10.4167 3.625C9.45911 3.625 8.51093 3.8136 7.62627 4.18004C6.7416 4.54649 5.93777 5.08359 5.26068 5.76068C4.58359 6.43777 4.04649 7.2416 3.68005 8.12627C3.3136 9.01093 3.125 9.95911 3.125 10.9167ZM21.875 22.375L15.625 16.125L21.875 22.375Z" fill="#D0F9E3"/>
<path d="M21.875 22.375L15.625 16.125M3.125 10.9167C3.125 11.8742 3.3136 12.8224 3.68005 13.7071C4.04649 14.5917 4.58359 15.3956 5.26068 16.0727C5.93777 16.7497 6.7416 17.2868 7.62627 17.6533C8.51093 18.0197 9.45911 18.2083 10.4167 18.2083C11.3742 18.2083 12.3224 18.0197 13.2071 17.6533C14.0917 17.2868 14.8956 16.7497 15.5727 16.0727C16.2497 15.3956 16.7868 14.5917 17.1533 13.7071C17.5197 12.8224 17.7083 11.8742 17.7083 10.9167C17.7083 9.95911 17.5197 9.01093 17.1533 8.12627C16.7868 7.2416 16.2497 6.43777 15.5727 5.76068C14.8956 5.08359 14.0917 4.54649 13.2071 4.18004C12.3224 3.8136 11.3742 3.625 10.4167 3.625C9.45911 3.625 8.51093 3.8136 7.62627 4.18004C6.7416 4.54649 5.93777 5.08359 5.26068 5.76068C4.58359 6.43777 4.04649 7.2416 3.68005 8.12627C3.3136 9.01093 3.125 9.95911 3.125 10.9167Z" stroke="#13837B" stroke-width="3" stroke-linecap="round" stroke-linejoin="round"/>
<path d="M12.5 7.79167H9.89587C9.48147 7.79167 9.08405 7.95629 8.79102 8.24931C8.49799 8.54234 8.33337 8.93977 8.33337 9.35417C8.33337 9.76857 8.49799 10.166 8.79102 10.459C9.08405 10.752 9.48147 10.9167 9.89587 10.9167H10.9375C11.3519 10.9167 11.7494 11.0813 12.0424 11.3743C12.3354 11.6673 12.5 12.0648 12.5 12.4792C12.5 12.8936 12.3354 13.291 12.0424 13.584C11.7494 13.877 11.3519 14.0417 10.9375 14.0417H8.33337M10.4167 14.0417V15.0833M10.4167 6.75V7.79167" stroke="#13837B" stroke-width="3" stroke-linecap="round" stroke-linejoin="round"/>
</svg>
