<svg width="17" height="18" viewBox="0 0 17 18" fill="none" xmlns="http://www.w3.org/2000/svg">
<path fill-rule="evenodd" clip-rule="evenodd" d="M8.15247 6.37305C9.44769 6.37305 10.4977 5.32306 10.4977 4.02783C10.4977 2.73261 9.44769 1.68262 8.15247 1.68262C6.85724 1.68262 5.80725 2.73261 5.80725 4.02783C5.80725 5.32306 6.85724 6.37305 8.15247 6.37305Z" stroke="#6756AE" stroke-width="1.5"/>
<path d="M10.9689 8.45777C9.37159 7.00692 6.93346 7.00692 5.33618 8.45777" stroke="#6756AE" stroke-width="1.5"/>
<path d="M10.4977 4.10491C10.0742 4.22696 9.63559 4.28871 9.19483 4.28836C8.0187 4.29011 6.88519 3.84817 6.02063 3.05078" stroke="#6756AE" stroke-width="1.5"/>
<path fill-rule="evenodd" clip-rule="evenodd" d="M13.0167 14.7114C14.312 14.7114 15.3619 13.6614 15.3619 12.3662C15.3619 11.071 14.312 10.021 13.0167 10.021C11.7215 10.021 10.6715 11.071 10.6715 12.3662C10.6715 13.6614 11.7215 14.7114 13.0167 14.7114Z" stroke="#6756AE" stroke-width="1.5"/>
<path d="M16.3173 17.3172C15.5238 16.3007 14.3062 15.7065 13.0166 15.7065C11.7271 15.7065 10.5095 16.3007 9.71594 17.3172" stroke="#6756AE" stroke-width="1.5"/>
<path d="M15.3619 12.4433C13.7878 12.8966 12.0913 12.4971 10.8848 11.3892" stroke="#6756AE" stroke-width="1.5"/>
<path fill-rule="evenodd" clip-rule="evenodd" d="M3.98328 14.7114C5.2785 14.7114 6.32849 13.6614 6.32849 12.3662C6.32849 11.071 5.2785 10.021 3.98328 10.021C2.68805 10.021 1.63806 11.071 1.63806 12.3662C1.63806 13.6614 2.68805 14.7114 3.98328 14.7114Z" stroke="#6756AE" stroke-width="1.5"/>
<path d="M7.28323 17.3172C6.48971 16.3007 5.2721 15.7065 3.98256 15.7065C2.69302 15.7065 1.47541 16.3007 0.681885 17.3172" stroke="#6756AE" stroke-width="1.5"/>
<path d="M6.32842 12.4433C4.75434 12.8966 3.05781 12.4971 1.85132 11.3892" stroke="#6756AE" stroke-width="1.5"/>
</svg>
