<svg width="25" height="25" viewBox="0 0 25 25" fill="none" xmlns="http://www.w3.org/2000/svg">
<path fill-rule="evenodd" clip-rule="evenodd" d="M19.0513 11.0108C18.8471 10.6945 18.679 10.3563 18.5503 10.0025C18.5496 6.34603 15.1711 4.16134 11.9045 4.16134C10.0497 4.14714 8.26744 4.88063 6.95996 6.19621C5.65248 7.5118 4.93002 9.29858 4.95568 11.1532C4.95568 13.6548 5.89098 15.5143 7.73519 16.683V20.491C7.73519 20.6829 7.89075 20.8384 8.08263 20.8384H15.0314C15.2233 20.8384 15.3789 20.6829 15.3789 20.491V18.4223C16.5872 18.4098 17.3245 18.2771 17.8617 17.7407C18.4426 17.1597 18.5253 15.4198 18.5301 14.5942C18.5764 14.5942 18.6256 14.5944 18.6766 14.5947H18.6767C18.8554 14.5954 19.0567 14.5962 19.2361 14.5887C19.503 14.5787 19.7502 14.4455 19.9053 14.228C20.0036 14.0746 20.0499 13.8936 20.0373 13.7117V13.6159C20.0957 12.8404 19.5412 11.8682 19.0513 11.0108ZM12.1525 16.3217C11.5769 16.3217 11.1102 15.855 11.1102 15.2794C11.1102 14.7037 11.5769 14.2371 12.1525 14.2371C12.7282 14.2371 13.1949 14.7037 13.1949 15.2794C13.1949 15.855 12.7282 16.3217 12.1525 16.3217ZM12.8474 12.7341C12.8473 12.4576 13.011 12.2074 13.2643 12.0968V12.0975C14.5367 11.5423 15.2042 10.1334 14.8281 8.79705C14.452 7.46074 13.1476 6.60683 11.7724 6.79667C10.3972 6.98652 9.373 8.1619 9.37302 9.55012C9.37302 9.93389 9.68413 10.245 10.0679 10.245C10.4517 10.245 10.7628 9.93389 10.7628 9.55012C10.7624 8.85592 11.2744 8.26793 11.962 8.17276C12.6497 8.0776 13.3021 8.50446 13.4903 9.17266C13.6784 9.84087 13.3447 10.5455 12.7084 10.8231C11.9486 11.1547 11.4575 11.905 11.4577 12.7341C11.4577 13.1178 11.7688 13.4289 12.1525 13.4289C12.5363 13.4289 12.8474 13.1178 12.8474 12.7341Z" fill="#13837B"/>
<mask id="mask0_5793_6228" style="mask-type:alpha" maskUnits="userSpaceOnUse" x="4" y="4" width="17" height="17">
<path fill-rule="evenodd" clip-rule="evenodd" d="M19.0513 11.0108C18.8471 10.6945 18.679 10.3563 18.5503 10.0025C18.5496 6.34603 15.1711 4.16134 11.9045 4.16134C10.0497 4.14714 8.26744 4.88063 6.95996 6.19621C5.65248 7.5118 4.93002 9.29858 4.95568 11.1532C4.95568 13.6548 5.89098 15.5143 7.73519 16.683V20.491C7.73519 20.6829 7.89075 20.8384 8.08263 20.8384H15.0314C15.2233 20.8384 15.3789 20.6829 15.3789 20.491V18.4223C16.5872 18.4098 17.3245 18.2771 17.8617 17.7407C18.4426 17.1597 18.5253 15.4198 18.5301 14.5942C18.5764 14.5942 18.6256 14.5944 18.6766 14.5947H18.6767C18.8554 14.5954 19.0567 14.5962 19.2361 14.5887C19.503 14.5787 19.7502 14.4455 19.9053 14.228C20.0036 14.0746 20.0499 13.8936 20.0373 13.7117V13.6159C20.0957 12.8404 19.5412 11.8682 19.0513 11.0108ZM12.1525 16.3217C11.5769 16.3217 11.1102 15.855 11.1102 15.2794C11.1102 14.7037 11.5769 14.2371 12.1525 14.2371C12.7282 14.2371 13.1949 14.7037 13.1949 15.2794C13.1949 15.855 12.7282 16.3217 12.1525 16.3217ZM12.8474 12.7341C12.8473 12.4576 13.011 12.2074 13.2643 12.0968V12.0975C14.5367 11.5423 15.2042 10.1334 14.8281 8.79705C14.452 7.46074 13.1476 6.60683 11.7724 6.79667C10.3972 6.98652 9.373 8.1619 9.37302 9.55012C9.37302 9.93389 9.68413 10.245 10.0679 10.245C10.4517 10.245 10.7628 9.93389 10.7628 9.55012C10.7624 8.85592 11.2744 8.26793 11.962 8.17276C12.6497 8.0776 13.3021 8.50446 13.4903 9.17266C13.6784 9.84087 13.3447 10.5455 12.7084 10.8231C11.9486 11.1547 11.4575 11.905 11.4577 12.7341C11.4577 13.1178 11.7688 13.4289 12.1525 13.4289C12.5363 13.4289 12.8474 13.1178 12.8474 12.7341Z" fill="white"/>
</mask>
<g mask="url(#mask0_5793_6228)">
</g>
</svg>
