<svg width="25" height="25" viewBox="0 0 25 25" fill="none" xmlns="http://www.w3.org/2000/svg">
<path fill-rule="evenodd" clip-rule="evenodd" d="M20.4911 4.16162H15.6269C15.435 4.16162 15.2795 4.31717 15.2795 4.50906V20.4913C15.2795 20.6831 15.435 20.8387 15.6269 20.8387H20.4911C20.683 20.8387 20.8385 20.6831 20.8385 20.4913V4.50906C20.8385 4.31717 20.683 4.16162 20.4911 4.16162ZM10.4598 9.54693H6.04108C5.59279 9.57397 5.15359 9.41246 4.82962 9.10142C4.50565 8.79038 4.32639 8.35812 4.33516 7.9091C4.33503 7.08191 4.95072 6.38401 5.77147 6.281C6.11017 5.1289 7.16668 4.33708 8.36754 4.33534C9.25952 4.33798 10.0891 4.79335 10.5703 5.54443C11.5763 5.68195 12.3228 6.5464 12.3124 7.56167C12.302 8.57693 11.5379 9.42589 10.5293 9.54276C10.5063 9.54565 10.483 9.54704 10.4598 9.54693ZM7.98327 14.2374H5.43584C5.15515 14.2371 4.90184 14.4057 4.79378 14.6647L4.21494 16.0545C4.12547 16.2689 4.14914 16.514 4.27802 16.7073C4.4069 16.9007 4.62392 17.0169 4.85632 17.0169H7.98327C8.17516 17.0169 8.33071 16.8613 8.33071 16.6694V14.5848C8.33071 14.3929 8.17516 14.2374 7.98327 14.2374ZM4.85632 18.2118C4.85632 17.9356 5.08017 17.7118 5.35632 17.7118H7.83071C8.10685 17.7118 8.33071 17.9356 8.33071 18.2118V20.3387C8.33071 20.6148 8.10685 20.8387 7.83071 20.8387H5.35632C5.08017 20.8387 4.85632 20.6148 4.85632 20.3387V18.2118ZM17.0167 16.8432C17.3045 16.8432 17.5378 16.6098 17.5378 16.322V15.6271C17.5378 15.3393 17.3045 15.106 17.0167 15.106C16.7289 15.106 16.4955 15.3393 16.4955 15.6271V16.322C16.4955 16.6098 16.7289 16.8432 17.0167 16.8432ZM17.5378 13.195C17.5378 13.4829 17.3045 13.7162 17.0167 13.7162C16.7289 13.7162 16.4955 13.4829 16.4955 13.195V12.5002C16.4955 12.2123 16.7289 11.979 17.0167 11.979C17.3045 11.979 17.5378 12.2123 17.5378 12.5002V13.195ZM17.0167 10.5892C17.3045 10.5892 17.5378 10.3559 17.5378 10.0681V9.37321C17.5378 9.08538 17.3045 8.85205 17.0167 8.85205C16.7289 8.85205 16.4955 9.08538 16.4955 9.37321V10.0681C16.4955 10.3559 16.7289 10.5892 17.0167 10.5892ZM17.5378 6.94114C17.5378 7.22896 17.3045 7.46229 17.0167 7.46229C16.7289 7.46229 16.4955 7.22896 16.4955 6.94114V6.24626C16.4955 5.95843 16.7289 5.7251 17.0167 5.7251C17.3045 5.7251 17.5378 5.95843 17.5378 6.24626V6.94114ZM19.1013 16.8432C19.3892 16.8432 19.6225 16.6098 19.6225 16.322V15.6271C19.6225 15.3393 19.3892 15.106 19.1013 15.106C18.8135 15.106 18.5802 15.3393 18.5802 15.6271V16.322C18.5802 16.6098 18.8135 16.8432 19.1013 16.8432ZM19.6225 13.195C19.6225 13.4829 19.3892 13.7162 19.1013 13.7162C18.8135 13.7162 18.5802 13.4829 18.5802 13.195V12.5002C18.5802 12.2123 18.8135 11.979 19.1013 11.979C19.3892 11.979 19.6225 12.2123 19.6225 12.5002V13.195ZM19.1013 10.5892C19.3892 10.5892 19.6225 10.3559 19.6225 10.0681V9.37321C19.6225 9.08538 19.3892 8.85205 19.1013 8.85205C18.8135 8.85205 18.5802 9.08538 18.5802 9.37321V10.0681C18.5802 10.3559 18.8135 10.5892 19.1013 10.5892ZM19.6225 6.94114C19.6225 7.22896 19.3892 7.46229 19.1013 7.46229C18.8135 7.46229 18.5802 7.22896 18.5802 6.94114V6.24626C18.5802 5.95843 18.8135 5.7251 19.1013 5.7251C19.3892 5.7251 19.6225 5.95843 19.6225 6.24626V6.94114ZM11.5598 11.2119C11.6955 11.0762 11.9154 11.0762 12.0511 11.2119L14.4832 13.6439C14.5483 13.7092 14.5848 13.7977 14.5846 13.8899V20.4913C14.5846 20.6831 14.4291 20.8387 14.2372 20.8387H9.37303C9.18114 20.8387 9.02559 20.6831 9.02559 20.4913V13.8899C9.02561 13.7976 9.06236 13.7091 9.12773 13.6439L11.5598 11.2119ZM11.2839 18.7541C11.2839 19.0419 11.0506 19.2752 10.7628 19.2752C10.475 19.2752 10.2416 19.0419 10.2416 18.7541V18.0592C10.2416 17.7714 10.475 17.538 10.7628 17.538C11.0506 17.538 11.2839 17.7714 11.2839 18.0592V18.7541ZM10.7628 16.1483C11.0506 16.1483 11.2839 15.9149 11.2839 15.6271V14.9322C11.2839 14.6444 11.0506 14.4111 10.7628 14.4111C10.475 14.4111 10.2416 14.6444 10.2416 14.9322V15.6271C10.2416 15.9149 10.475 16.1483 10.7628 16.1483ZM13.3686 18.7541C13.3686 19.0419 13.1352 19.2752 12.8474 19.2752C12.5596 19.2752 12.3263 19.0419 12.3263 18.7541V18.0592C12.3263 17.7714 12.5596 17.538 12.8474 17.538C13.1352 17.538 13.3686 17.7714 13.3686 18.0592V18.7541ZM12.8474 16.1483C13.1352 16.1483 13.3686 15.9149 13.3686 15.6271V14.9322C13.3686 14.6444 13.1352 14.4111 12.8474 14.4111C12.5596 14.4111 12.3263 14.6444 12.3263 14.9322V15.6271C12.3263 15.9149 12.5596 16.1483 12.8474 16.1483Z" fill="#D97706"/>
<mask id="mask0_5793_10663" style="mask-type:alpha" maskUnits="userSpaceOnUse" x="4" y="4" width="17" height="17">
<path fill-rule="evenodd" clip-rule="evenodd" d="M20.4911 4.16162H15.6269C15.435 4.16162 15.2795 4.31717 15.2795 4.50906V20.4913C15.2795 20.6831 15.435 20.8387 15.6269 20.8387H20.4911C20.683 20.8387 20.8385 20.6831 20.8385 20.4913V4.50906C20.8385 4.31717 20.683 4.16162 20.4911 4.16162ZM10.4598 9.54693H6.04108C5.59279 9.57397 5.15359 9.41246 4.82962 9.10142C4.50565 8.79038 4.32639 8.35812 4.33516 7.9091C4.33503 7.08191 4.95072 6.38401 5.77147 6.281C6.11017 5.1289 7.16668 4.33708 8.36754 4.33534C9.25952 4.33798 10.0891 4.79335 10.5703 5.54443C11.5763 5.68195 12.3228 6.5464 12.3124 7.56167C12.302 8.57693 11.5379 9.42589 10.5293 9.54276C10.5063 9.54565 10.483 9.54704 10.4598 9.54693ZM7.98327 14.2374H5.43584C5.15515 14.2371 4.90184 14.4057 4.79378 14.6647L4.21494 16.0545C4.12547 16.2689 4.14914 16.514 4.27802 16.7073C4.4069 16.9007 4.62392 17.0169 4.85632 17.0169H7.98327C8.17516 17.0169 8.33071 16.8613 8.33071 16.6694V14.5848C8.33071 14.3929 8.17516 14.2374 7.98327 14.2374ZM4.85632 18.2118C4.85632 17.9356 5.08017 17.7118 5.35632 17.7118H7.83071C8.10685 17.7118 8.33071 17.9356 8.33071 18.2118V20.3387C8.33071 20.6148 8.10685 20.8387 7.83071 20.8387H5.35632C5.08017 20.8387 4.85632 20.6148 4.85632 20.3387V18.2118ZM17.0167 16.8432C17.3045 16.8432 17.5378 16.6098 17.5378 16.322V15.6271C17.5378 15.3393 17.3045 15.106 17.0167 15.106C16.7289 15.106 16.4955 15.3393 16.4955 15.6271V16.322C16.4955 16.6098 16.7289 16.8432 17.0167 16.8432ZM17.5378 13.195C17.5378 13.4829 17.3045 13.7162 17.0167 13.7162C16.7289 13.7162 16.4955 13.4829 16.4955 13.195V12.5002C16.4955 12.2123 16.7289 11.979 17.0167 11.979C17.3045 11.979 17.5378 12.2123 17.5378 12.5002V13.195ZM17.0167 10.5892C17.3045 10.5892 17.5378 10.3559 17.5378 10.0681V9.37321C17.5378 9.08538 17.3045 8.85205 17.0167 8.85205C16.7289 8.85205 16.4955 9.08538 16.4955 9.37321V10.0681C16.4955 10.3559 16.7289 10.5892 17.0167 10.5892ZM17.5378 6.94114C17.5378 7.22896 17.3045 7.46229 17.0167 7.46229C16.7289 7.46229 16.4955 7.22896 16.4955 6.94114V6.24626C16.4955 5.95843 16.7289 5.7251 17.0167 5.7251C17.3045 5.7251 17.5378 5.95843 17.5378 6.24626V6.94114ZM19.1013 16.8432C19.3892 16.8432 19.6225 16.6098 19.6225 16.322V15.6271C19.6225 15.3393 19.3892 15.106 19.1013 15.106C18.8135 15.106 18.5802 15.3393 18.5802 15.6271V16.322C18.5802 16.6098 18.8135 16.8432 19.1013 16.8432ZM19.6225 13.195C19.6225 13.4829 19.3892 13.7162 19.1013 13.7162C18.8135 13.7162 18.5802 13.4829 18.5802 13.195V12.5002C18.5802 12.2123 18.8135 11.979 19.1013 11.979C19.3892 11.979 19.6225 12.2123 19.6225 12.5002V13.195ZM19.1013 10.5892C19.3892 10.5892 19.6225 10.3559 19.6225 10.0681V9.37321C19.6225 9.08538 19.3892 8.85205 19.1013 8.85205C18.8135 8.85205 18.5802 9.08538 18.5802 9.37321V10.0681C18.5802 10.3559 18.8135 10.5892 19.1013 10.5892ZM19.6225 6.94114C19.6225 7.22896 19.3892 7.46229 19.1013 7.46229C18.8135 7.46229 18.5802 7.22896 18.5802 6.94114V6.24626C18.5802 5.95843 18.8135 5.7251 19.1013 5.7251C19.3892 5.7251 19.6225 5.95843 19.6225 6.24626V6.94114ZM11.5598 11.2119C11.6955 11.0762 11.9154 11.0762 12.0511 11.2119L14.4832 13.6439C14.5483 13.7092 14.5848 13.7977 14.5846 13.8899V20.4913C14.5846 20.6831 14.4291 20.8387 14.2372 20.8387H9.37303C9.18114 20.8387 9.02559 20.6831 9.02559 20.4913V13.8899C9.02561 13.7976 9.06236 13.7091 9.12773 13.6439L11.5598 11.2119ZM11.2839 18.7541C11.2839 19.0419 11.0506 19.2752 10.7628 19.2752C10.475 19.2752 10.2416 19.0419 10.2416 18.7541V18.0592C10.2416 17.7714 10.475 17.538 10.7628 17.538C11.0506 17.538 11.2839 17.7714 11.2839 18.0592V18.7541ZM10.7628 16.1483C11.0506 16.1483 11.2839 15.9149 11.2839 15.6271V14.9322C11.2839 14.6444 11.0506 14.4111 10.7628 14.4111C10.475 14.4111 10.2416 14.6444 10.2416 14.9322V15.6271C10.2416 15.9149 10.475 16.1483 10.7628 16.1483ZM13.3686 18.7541C13.3686 19.0419 13.1352 19.2752 12.8474 19.2752C12.5596 19.2752 12.3263 19.0419 12.3263 18.7541V18.0592C12.3263 17.7714 12.5596 17.538 12.8474 17.538C13.1352 17.538 13.3686 17.7714 13.3686 18.0592V18.7541ZM12.8474 16.1483C13.1352 16.1483 13.3686 15.9149 13.3686 15.6271V14.9322C13.3686 14.6444 13.1352 14.4111 12.8474 14.4111C12.5596 14.4111 12.3263 14.6444 12.3263 14.9322V15.6271C12.3263 15.9149 12.5596 16.1483 12.8474 16.1483Z" fill="white"/>
</mask>
<g mask="url(#mask0_5793_10663)">
</g>
</svg>
