<svg width="25" height="20" viewBox="0 0 25 20" fill="none" xmlns="http://www.w3.org/2000/svg">
<path d="M10.4167 0.0834961V2.43766L12.5 3.82308V2.16683H22.9167V17.7918H17.7083V19.8752H25V0.0834961H10.4167ZM7.8125 3.2085L0 8.41683V19.8752H15.625V8.41683L7.8125 3.2085ZM14.5833 4.25016V5.21891L16.2604 6.3335H16.6667V4.25016H14.5833ZM18.75 4.25016V6.3335H20.8333V4.25016H18.75ZM7.8125 5.81266L13.5417 9.4585V17.7918H10.4167V11.5418H5.20833V17.7918H2.08333V9.4585L7.8125 5.81266ZM18.75 8.41683V10.5002H20.8333V8.41683H18.75ZM18.75 12.5835V14.6668H20.8333V12.5835H18.75Z" fill="#6756AE"/>
</svg>
