<svg width="25" height="25" viewBox="0 0 25 25" fill="none" xmlns="http://www.w3.org/2000/svg">
<rect y="2" width="24" height="18" rx="4" fill="#3D628D"/>
<path d="M7.13086 15H5.62207V10.8691C5.62207 10.7552 5.6237 10.6152 5.62695 10.4492C5.63021 10.2799 5.63509 10.1074 5.6416 9.93164C5.64811 9.7526 5.65462 9.59147 5.66113 9.44824C5.62533 9.49056 5.55208 9.5638 5.44141 9.66797C5.33398 9.76888 5.23307 9.86003 5.13867 9.94141L4.31836 10.6006L3.59082 9.69238L5.89062 7.86133H7.13086V15ZM14.0742 11.4307C14.0742 12.0068 14.0286 12.5212 13.9375 12.9736C13.8496 13.4261 13.7064 13.8102 13.5078 14.126C13.3125 14.4417 13.0553 14.6826 12.7363 14.8486C12.4173 15.0146 12.0299 15.0977 11.5742 15.0977C11.0013 15.0977 10.5309 14.9528 10.1631 14.6631C9.79525 14.3701 9.52344 13.9502 9.34766 13.4033C9.17188 12.8532 9.08398 12.1956 9.08398 11.4307C9.08398 10.6592 9.16374 10 9.32324 9.45312C9.486 8.90299 9.74967 8.48145 10.1143 8.18848C10.4788 7.89551 10.9655 7.74902 11.5742 7.74902C12.1439 7.74902 12.6126 7.89551 12.9805 8.18848C13.3516 8.47819 13.6266 8.89811 13.8057 9.44824C13.9847 9.99512 14.0742 10.6559 14.0742 11.4307ZM10.583 11.4307C10.583 11.9743 10.6123 12.4284 10.6709 12.793C10.7327 13.1543 10.8353 13.4261 10.9785 13.6084C11.1217 13.7907 11.3203 13.8818 11.5742 13.8818C11.8249 13.8818 12.0218 13.7923 12.165 13.6133C12.3115 13.431 12.4157 13.1592 12.4775 12.7979C12.5394 12.4333 12.5703 11.9775 12.5703 11.4307C12.5703 10.887 12.5394 10.4329 12.4775 10.0684C12.4157 9.70378 12.3115 9.43034 12.165 9.24805C12.0218 9.0625 11.8249 8.96973 11.5742 8.96973C11.3203 8.96973 11.1217 9.0625 10.9785 9.24805C10.8353 9.43034 10.7327 9.70378 10.6709 10.0684C10.6123 10.4329 10.583 10.887 10.583 11.4307ZM19.7969 11.4307C19.7969 12.0068 19.7513 12.5212 19.6602 12.9736C19.5723 13.4261 19.429 13.8102 19.2305 14.126C19.0352 14.4417 18.778 14.6826 18.459 14.8486C18.14 15.0146 17.7526 15.0977 17.2969 15.0977C16.724 15.0977 16.2536 14.9528 15.8857 14.6631C15.5179 14.3701 15.2461 13.9502 15.0703 13.4033C14.8945 12.8532 14.8066 12.1956 14.8066 11.4307C14.8066 10.6592 14.8864 10 15.0459 9.45312C15.2087 8.90299 15.4723 8.48145 15.8369 8.18848C16.2015 7.89551 16.6882 7.74902 17.2969 7.74902C17.8665 7.74902 18.3353 7.89551 18.7031 8.18848C19.0742 8.47819 19.3493 8.89811 19.5283 9.44824C19.7074 9.99512 19.7969 10.6559 19.7969 11.4307ZM16.3057 11.4307C16.3057 11.9743 16.335 12.4284 16.3936 12.793C16.4554 13.1543 16.5579 13.4261 16.7012 13.6084C16.8444 13.7907 17.043 13.8818 17.2969 13.8818C17.5475 13.8818 17.7445 13.7923 17.8877 13.6133C18.0342 13.431 18.1383 13.1592 18.2002 12.7979C18.262 12.4333 18.293 11.9775 18.293 11.4307C18.293 10.887 18.262 10.4329 18.2002 10.0684C18.1383 9.70378 18.0342 9.43034 17.8877 9.24805C17.7445 9.0625 17.5475 8.96973 17.2969 8.96973C17.043 8.96973 16.8444 9.0625 16.7012 9.24805C16.5579 9.43034 16.4554 9.70378 16.3936 10.0684C16.335 10.4329 16.3057 10.887 16.3057 11.4307Z" fill="white"/>
</svg>
