<svg width="25" height="26" viewBox="0 0 25 26" fill="none" xmlns="http://www.w3.org/2000/svg">
<path fill-rule="evenodd" clip-rule="evenodd" d="M19.1438 8.72944L15.381 4.96667C15.1852 4.7721 14.9205 4.66251 14.6444 4.66162H6.59359C6.01793 4.66162 5.55127 5.12828 5.55127 5.70394V20.2964C5.55127 20.872 6.01793 21.3387 6.59359 21.3387H19.1014C19.2933 21.3387 19.4488 21.1831 19.4488 20.9913V9.46601C19.4495 9.18961 19.3397 8.9244 19.1438 8.72944ZM10.9831 12.4324L8.64139 11.5569C7.98692 11.2448 7.58862 10.5655 7.6359 9.84194C7.62964 8.93135 8.31998 8.16682 9.22648 8.08042C9.31108 8.06736 9.37342 7.99439 9.3731 7.90879V7.44114C9.3731 7.05736 9.68421 6.74626 10.068 6.74626C10.4518 6.74626 10.7629 7.05736 10.7629 7.44114V7.87543C10.7629 7.97138 10.8406 8.04915 10.9366 8.04915H11.8052C12.1889 8.04915 12.5001 8.36026 12.5001 8.74403C12.5001 9.1278 12.1889 9.43891 11.8052 9.43891H9.63368C9.02566 9.43891 9.02566 9.74188 9.02566 9.84194C9.01463 9.99448 9.05986 10.1458 9.15282 10.2672L11.4946 11.1428C12.1503 11.4553 12.5488 12.1364 12.5001 12.8612C12.5045 13.7704 11.8146 14.533 10.9095 14.6192C10.8249 14.6323 10.7625 14.7053 10.7629 14.7909V15.2585C10.7629 15.6423 10.4518 15.9534 10.068 15.9534C9.68421 15.9534 9.3731 15.6423 9.3731 15.2585V14.8242C9.3731 14.7283 9.29532 14.6505 9.19938 14.6505H8.33078C7.94701 14.6505 7.6359 14.3394 7.6359 13.9556C7.6359 13.5718 7.94701 13.2607 8.33078 13.2607H10.5023C11.1103 13.2607 11.1103 12.9578 11.1103 12.8577C11.1213 12.7052 11.0761 12.5539 10.9831 12.4324ZM17.5379 15.4322C17.5379 15.1444 17.3046 14.9111 17.0168 14.9111H13.5424C13.2545 14.9111 13.0212 15.1444 13.0212 15.4322C13.0212 15.7201 13.2545 15.9534 13.5424 15.9534H17.0168C17.3046 15.9534 17.5379 15.7201 17.5379 15.4322ZM14.411 12.3053C14.411 12.0175 14.6443 11.7841 14.9321 11.7841H17.0168C17.3046 11.7841 17.5379 12.0175 17.5379 12.3053C17.5379 12.5931 17.3046 12.8264 17.0168 12.8264H14.9321C14.6443 12.8264 14.411 12.5931 14.411 12.3053ZM17.5379 18.5592C17.5379 18.2714 17.3046 18.038 17.0168 18.038H10.068C9.78015 18.038 9.54682 18.2714 9.54682 18.5592C9.54682 18.847 9.78015 19.0803 10.068 19.0803H17.0168C17.3046 19.0803 17.5379 18.847 17.5379 18.5592Z" fill="#D97706"/>
<mask id="mask0_5793_8570" style="mask-type:alpha" maskUnits="userSpaceOnUse" x="5" y="4" width="15" height="18">
<path fill-rule="evenodd" clip-rule="evenodd" d="M19.1438 8.72944L15.381 4.96667C15.1852 4.7721 14.9205 4.66251 14.6444 4.66162H6.59359C6.01793 4.66162 5.55127 5.12828 5.55127 5.70394V20.2964C5.55127 20.872 6.01793 21.3387 6.59359 21.3387H19.1014C19.2933 21.3387 19.4488 21.1831 19.4488 20.9913V9.46601C19.4495 9.18961 19.3397 8.9244 19.1438 8.72944ZM10.9831 12.4324L8.64139 11.5569C7.98692 11.2448 7.58862 10.5655 7.6359 9.84194C7.62964 8.93135 8.31998 8.16682 9.22648 8.08042C9.31108 8.06736 9.37342 7.99439 9.3731 7.90879V7.44114C9.3731 7.05736 9.68421 6.74626 10.068 6.74626C10.4518 6.74626 10.7629 7.05736 10.7629 7.44114V7.87543C10.7629 7.97138 10.8406 8.04915 10.9366 8.04915H11.8052C12.1889 8.04915 12.5001 8.36026 12.5001 8.74403C12.5001 9.1278 12.1889 9.43891 11.8052 9.43891H9.63368C9.02566 9.43891 9.02566 9.74188 9.02566 9.84194C9.01463 9.99448 9.05986 10.1458 9.15282 10.2672L11.4946 11.1428C12.1503 11.4553 12.5488 12.1364 12.5001 12.8612C12.5045 13.7704 11.8146 14.533 10.9095 14.6192C10.8249 14.6323 10.7625 14.7053 10.7629 14.7909V15.2585C10.7629 15.6423 10.4518 15.9534 10.068 15.9534C9.68421 15.9534 9.3731 15.6423 9.3731 15.2585V14.8242C9.3731 14.7283 9.29532 14.6505 9.19938 14.6505H8.33078C7.94701 14.6505 7.6359 14.3394 7.6359 13.9556C7.6359 13.5718 7.94701 13.2607 8.33078 13.2607H10.5023C11.1103 13.2607 11.1103 12.9578 11.1103 12.8577C11.1213 12.7052 11.0761 12.5539 10.9831 12.4324ZM17.5379 15.4322C17.5379 15.1444 17.3046 14.9111 17.0168 14.9111H13.5424C13.2545 14.9111 13.0212 15.1444 13.0212 15.4322C13.0212 15.7201 13.2545 15.9534 13.5424 15.9534H17.0168C17.3046 15.9534 17.5379 15.7201 17.5379 15.4322ZM14.411 12.3053C14.411 12.0175 14.6443 11.7841 14.9321 11.7841H17.0168C17.3046 11.7841 17.5379 12.0175 17.5379 12.3053C17.5379 12.5931 17.3046 12.8264 17.0168 12.8264H14.9321C14.6443 12.8264 14.411 12.5931 14.411 12.3053ZM17.5379 18.5592C17.5379 18.2714 17.3046 18.038 17.0168 18.038H10.068C9.78015 18.038 9.54682 18.2714 9.54682 18.5592C9.54682 18.847 9.78015 19.0803 10.068 19.0803H17.0168C17.3046 19.0803 17.5379 18.847 17.5379 18.5592Z" fill="white"/>
</mask>
<g mask="url(#mask0_5793_8570)">
</g>
</svg>
