<svg width="25" height="24" viewBox="0 0 25 24" fill="none" xmlns="http://www.w3.org/2000/svg">
<path d="M15.2285 10.1991C15.8691 10.746 16.8359 10.6815 17.3672 10.0487C17.7441 9.59753 17.8418 9.04284 17.7383 8.51159C17.498 7.27722 16.209 6.22448 15.0332 7.15222C14.4863 7.58386 14.3828 8.25183 14.4668 8.91003C14.5312 9.41394 14.8496 9.87292 15.2285 10.1991ZM18.8574 9.44909C20.0859 9.82995 20.5136 7.9198 19.7187 7.24597C19.4843 7.0487 19.2597 6.99206 19.0566 7.02917C18.4101 7.15222 17.9883 8.24597 18.2636 8.88073C18.3769 9.14636 18.58 9.36511 18.8574 9.44909ZM22.3379 8.24206C22.0175 7.7069 21.3242 7.78503 20.9121 8.12683C20.3965 8.55261 20.3476 9.4862 20.8027 9.95105C21.7129 10.8807 22.8496 9.09753 22.3379 8.24206ZM23.3847 9.56237C22.9746 9.54284 22.6093 9.88269 22.3867 10.1854C22.1797 10.4647 22.0293 10.8085 22.1718 11.1385C22.2363 11.285 22.3164 11.3573 22.4648 11.4139C23.7754 11.9139 24.7422 9.62878 23.3847 9.56237ZM23.7441 11.744C23.4218 11.9628 23.0097 12.3534 23.0722 12.7792C23.1269 13.1522 23.5703 13.3514 23.9121 13.2928C24.4609 13.1952 24.8808 12.9198 24.875 12.3182C24.8672 11.7089 24.2363 11.41 23.7441 11.744ZM17.205 10.8671C15.6484 11.7128 15.0605 13.6659 15.5175 15.3104C15.6679 15.8475 15.8105 16.4276 15.4804 16.9296C15.1992 17.3573 14.6992 17.6268 14.2929 17.9159C13.7168 18.3241 13.0039 18.6229 12.5547 19.1835C11.9648 19.9178 11.8027 21.2069 12.25 22.0253C12.4804 22.4452 13.1211 22.8534 13.5605 23.0038C14.0996 23.1874 14.6875 23.1444 15.2343 23.0155C16.4765 22.7225 17.4863 21.912 18.3965 21.0585C19.3496 20.1639 20.2754 19.1952 21.0273 18.121C22.3164 16.2792 23.2734 13.7538 21.6914 11.7714C20.7871 10.6405 18.4375 10.1971 17.205 10.8671ZM12.3769 2.30847C12.1445 1.95495 11.7812 1.69323 11.3789 1.56042C10.83 1.37683 10.2109 1.43542 9.75583 1.82995C9.34763 2.18347 8.93356 2.96081 8.8945 3.50769C8.85349 4.09558 8.99997 4.77722 9.45895 5.1737C9.65427 5.34362 9.90427 5.44128 10.1445 5.44714C10.2363 5.46276 10.33 5.47058 10.4258 5.46276C10.9902 5.41003 11.5175 5.10534 11.9375 4.74011C12.5781 4.18737 12.8457 3.01745 12.3769 2.30847ZM7.80661 3.3573C8.57224 3.03112 8.94724 1.91003 8.65036 1.21667C8.49216 0.84753 8.1445 0.601436 7.56442 0.661983C6.0488 0.81628 6.08395 4.09167 7.80661 3.3573Z" fill="#6756AE"/>
<path d="M4.30469 3.13257C5.83789 4.42358 6.72656 1.19116 5.14648 0.716554C4.53515 0.531007 3.9375 0.960694 3.79492 1.66577C3.68164 2.21655 3.8789 2.77515 4.30469 3.13257ZM3.42969 4.05054C3.9707 3.53687 3.73633 2.62476 3.19531 2.17944C2.91992 1.95093 2.56445 1.84546 2.19336 1.97437C2.0664 2.01733 1.93945 2.17554 1.86133 2.28101C1.21875 3.15405 2.51953 4.91187 3.42969 4.05054ZM0.382811 3.95679C-0.513673 4.82983 1.1582 6.65015 2.0664 5.70679C2.47851 5.2771 2.24805 4.57983 1.86914 4.22827C1.52344 3.90796 0.785155 3.56421 0.382811 3.95679ZM9.6289 13.5193C8.86133 12.5486 8.65625 11.4724 9.08984 10.3064C9.36133 9.57397 9.80664 8.94702 9.91016 8.15601C10.1523 6.3103 8.75195 4.5271 6.89844 4.35718C6.35351 4.3064 5.67578 4.31812 5.14648 4.46655C4.30273 4.70483 3.33398 5.20874 2.83008 5.94507C2.10156 7.00952 2.25976 8.42554 2.46484 9.62476C2.66601 10.8084 2.92773 11.9744 3.3789 13.0896C4.0664 14.781 4.88672 16.6912 6.16015 18.033C6.48633 18.3767 6.86133 18.6814 7.2832 18.9001C8.00391 19.2732 8.84375 19.4548 9.63672 19.2166C9.76172 19.1794 9.88476 19.1306 10.0039 19.074C10.7656 18.7048 11.4785 17.9587 11.5977 17.1033C11.7012 16.3669 11.4199 15.7341 11.0117 15.1599C10.5957 14.572 10.043 14.0427 9.6289 13.5193Z" fill="#6756AE"/>
</svg>
