<svg width="21" height="18" viewBox="0 0 21 18" fill="none" xmlns="http://www.w3.org/2000/svg">
<path d="M2.16671 17.3332C1.59379 17.3332 1.10317 17.129 0.694834 16.7207C0.286501 16.3123 0.0826813 15.8221 0.0833758 15.2498V2.74984C0.0833758 2.17692 0.287543 1.6863 0.695876 1.27796C1.10421 0.869631 1.59449 0.665811 2.16671 0.666506H18.8334C19.4063 0.666506 19.8969 0.870672 20.3053 1.27901C20.7136 1.68734 20.9174 2.17762 20.9167 2.74984V15.2498C20.9167 15.8228 20.7125 16.3134 20.3042 16.7217C19.8959 17.13 19.4056 17.3339 18.8334 17.3332H2.16671ZM2.16671 4.83317H18.8334V2.74984H2.16671V4.83317ZM9.40629 10.7186L7.974 9.2863C7.76567 9.07796 7.51393 8.9738 7.21879 8.9738C6.92365 8.9738 6.67192 9.07796 6.46358 9.2863C6.25525 9.49463 6.15108 9.74637 6.15108 10.0415C6.15108 10.3366 6.25525 10.5884 6.46358 10.7967L8.67713 13.0103C8.88546 13.2186 9.12852 13.3228 9.40629 13.3228C9.68407 13.3228 9.92713 13.2186 10.1355 13.0103L14.5365 8.60921C14.7448 8.40088 14.849 8.14915 14.849 7.85401C14.849 7.55887 14.7448 7.30713 14.5365 7.0988C14.3282 6.89046 14.0764 6.7863 13.7813 6.7863C13.4862 6.7863 13.2344 6.89046 13.0261 7.0988L9.40629 10.7186Z" fill="#13837B"/>
</svg>
