<svg width="25" height="26" viewBox="0 0 25 26" fill="none" xmlns="http://www.w3.org/2000/svg">
<path d="M17.7084 22.375H7.29171C6.73917 22.375 6.20927 22.1555 5.81857 21.7648C5.42787 21.3741 5.20837 20.8442 5.20837 20.2917V5.70833C5.20837 5.1558 5.42787 4.62589 5.81857 4.23519C6.20927 3.84449 6.73917 3.625 7.29171 3.625H14.5834L19.7917 8.83333V20.2917C19.7917 20.8442 19.5722 21.3741 19.1815 21.7648C18.7908 22.1555 18.2609 22.375 17.7084 22.375Z" fill="#3D628D"/>
<path d="M14.5834 4.6665V7.99984C14.5834 8.22085 14.6712 8.43281 14.8275 8.58909C14.9837 8.74537 15.1957 8.83317 15.4167 8.83317H18.75" stroke="white" stroke-width="2" stroke-linecap="square" stroke-linejoin="round"/>
<path d="M14.5834 11.9582H11.9792C11.5648 11.9582 11.1674 12.1228 10.8744 12.4158C10.5814 12.7088 10.4167 13.1063 10.4167 13.5207C10.4167 13.9351 10.5814 14.3325 10.8744 14.6255C11.1674 14.9186 11.5648 15.0832 11.9792 15.0832H13.0209C13.4353 15.0832 13.8327 15.2478 14.1258 15.5408C14.4188 15.8338 14.5834 16.2313 14.5834 16.6457C14.5834 17.0601 14.4188 17.4575 14.1258 17.7505C13.8327 18.0435 13.4353 18.2082 13.0209 18.2082H10.4167M12.5001 18.2082V19.2498M12.5001 10.9165V11.9582" stroke="white" stroke-width="2" stroke-linecap="round" stroke-linejoin="round"/>
</svg>
