<svg width="25" height="26" viewBox="0 0 25 26" fill="none" xmlns="http://www.w3.org/2000/svg">
<path fill-rule="evenodd" clip-rule="evenodd" d="M11.4577 20.5741C11.4577 20.766 11.3021 20.9215 11.1103 20.9215H4.85635C4.66446 20.9215 4.50891 20.766 4.50891 20.5741V19.5318C4.50891 19.148 4.82002 18.8369 5.20379 18.8369H10.7628C11.1466 18.8369 11.4577 19.148 11.4577 19.5318V20.5741Z" stroke="#3D628D" stroke-width="3"/>
<path fill-rule="evenodd" clip-rule="evenodd" d="M10.7628 18.837H5.20374V18.1421C5.20374 17.7584 5.51484 17.4473 5.89861 17.4473H10.0679C10.4517 17.4473 10.7628 17.7584 10.7628 18.1421V18.837Z" stroke="#3D628D" stroke-width="3"/>
<rect x="9.02588" y="10.498" width="5.40477" height="3.43965" transform="rotate(-45 9.02588 10.498)" stroke="#3D628D" stroke-width="3"/>
<path d="M9.0256 10.4984L8.67816 10.1509C8.02358 9.49773 6.97918 10.5366 7.63584 11.1932L10.7628 14.3202C11.4181 14.9755 12.4625 13.9352 11.8051 13.2779L11.4577 12.9304" stroke="#3D628D" stroke-width="3"/>
<path d="M15.2795 9.10849L15.6269 9.45593C16.2822 10.1112 17.3266 9.07097 16.6692 8.41361L13.5423 5.28666C12.8877 4.63347 11.8433 5.67232 12.5 6.32898L12.8474 6.67642" stroke="#3D628D" stroke-width="3"/>
<path d="M13.3687 11.0186L20.4912 18.1411" stroke="#3D628D" stroke-width="3"/>
</svg>
