<svg width="25" height="26" viewBox="0 0 25 26" fill="none" xmlns="http://www.w3.org/2000/svg">
<path fill-rule="evenodd" clip-rule="evenodd" d="M12.5 19.7375C12.7274 19.7374 12.9391 19.6215 13.0617 19.43C14.3678 17.3867 17.4057 12.4016 17.4057 10.2335C17.4057 7.52382 15.2091 5.32715 12.4993 5.32715C9.7896 5.32715 7.59293 7.52382 7.59293 10.2335C7.59293 12.4016 10.6308 17.3873 11.9376 19.43C12.0597 19.6224 12.2721 19.7385 12.5 19.7375ZM15.6526 17.5261C15.2855 17.4952 14.9628 17.7677 14.9318 18.1348C14.9009 18.5019 15.1734 18.8247 15.5406 18.8556C16.3868 18.9179 17.2282 19.0345 18.0595 19.2045C18.1357 19.2215 18.1899 19.2891 18.1899 19.3673C18.1899 19.4454 18.1357 19.513 18.0595 19.53C16.228 19.882 14.3646 20.0409 12.5 20.0043C10.6356 20.0409 8.77247 19.8819 6.94119 19.53C6.86495 19.513 6.81074 19.4454 6.81074 19.3673C6.81074 19.2891 6.86495 19.2215 6.94119 19.2045C7.7637 19.0359 8.59613 18.92 9.43341 18.8576C9.79238 18.817 10.0538 18.498 10.0231 18.138C9.99235 17.7781 9.68067 17.508 9.32001 17.5288C4.495 17.9364 4.495 18.937 4.495 19.3666C4.495 21.1464 10.0431 21.3385 12.5 21.3385C14.9569 21.3385 20.505 21.1464 20.505 19.3666C20.505 18.937 20.505 17.9364 15.6526 17.5261ZM12.5 7.66327C11.2105 7.66327 10.1652 8.7086 10.1652 9.99807C10.1652 11.2875 11.2105 12.3329 12.5 12.3329C13.7895 12.3329 14.8348 11.2875 14.8348 9.99807C14.8348 8.7086 13.7895 7.66327 12.5 7.66327Z" fill="#3D628D"/>
<mask id="mask0_5793_9648" style="mask-type:alpha" maskUnits="userSpaceOnUse" x="4" y="5" width="17" height="17">
<path fill-rule="evenodd" clip-rule="evenodd" d="M12.5 19.7375C12.7274 19.7374 12.9391 19.6215 13.0617 19.43C14.3678 17.3867 17.4057 12.4016 17.4057 10.2335C17.4057 7.52382 15.2091 5.32715 12.4993 5.32715C9.7896 5.32715 7.59293 7.52382 7.59293 10.2335C7.59293 12.4016 10.6308 17.3873 11.9376 19.43C12.0597 19.6224 12.2721 19.7385 12.5 19.7375ZM15.6526 17.5261C15.2855 17.4952 14.9628 17.7677 14.9318 18.1348C14.9009 18.5019 15.1734 18.8247 15.5406 18.8556C16.3868 18.9179 17.2282 19.0345 18.0595 19.2045C18.1357 19.2215 18.1899 19.2891 18.1899 19.3673C18.1899 19.4454 18.1357 19.513 18.0595 19.53C16.228 19.882 14.3646 20.0409 12.5 20.0043C10.6356 20.0409 8.77247 19.8819 6.94119 19.53C6.86495 19.513 6.81074 19.4454 6.81074 19.3673C6.81074 19.2891 6.86495 19.2215 6.94119 19.2045C7.7637 19.0359 8.59613 18.92 9.43341 18.8576C9.79238 18.817 10.0538 18.498 10.0231 18.138C9.99235 17.7781 9.68067 17.508 9.32001 17.5288C4.495 17.9364 4.495 18.937 4.495 19.3666C4.495 21.1464 10.0431 21.3385 12.5 21.3385C14.9569 21.3385 20.505 21.1464 20.505 19.3666C20.505 18.937 20.505 17.9364 15.6526 17.5261ZM12.5 7.66327C11.2105 7.66327 10.1652 8.7086 10.1652 9.99807C10.1652 11.2875 11.2105 12.3329 12.5 12.3329C13.7895 12.3329 14.8348 11.2875 14.8348 9.99807C14.8348 8.7086 13.7895 7.66327 12.5 7.66327Z" fill="white"/>
</mask>
<g mask="url(#mask0_5793_9648)">
</g>
</svg>
