<svg width="45" height="46" viewBox="0 0 45 46" fill="none" xmlns="http://www.w3.org/2000/svg">
<rect y="0.5" width="45" height="45" rx="4" fill="#FEF3C7"/>
<path fill-rule="evenodd" clip-rule="evenodd" d="M29.1438 18.7294L25.381 14.9667C25.1852 14.7721 24.9205 14.6625 24.6444 14.6616H16.5936C16.0179 14.6616 15.5513 15.1283 15.5513 15.7039V30.2964C15.5513 30.872 16.0179 31.3387 16.5936 31.3387H29.1014C29.2933 31.3387 29.4488 31.1831 29.4488 30.9913V19.466C29.4495 19.1896 29.3397 18.9244 29.1438 18.7294ZM20.9831 22.4324L18.6414 21.5569C17.9869 21.2448 17.5886 20.5655 17.6359 19.8419C17.6296 18.9314 18.32 18.1668 19.2265 18.0804C19.3111 18.0674 19.3734 17.9944 19.3731 17.9088V17.4411C19.3731 17.0574 19.6842 16.7463 20.068 16.7463C20.4518 16.7463 20.7629 17.0574 20.7629 17.4411V17.8754C20.7629 17.9714 20.8406 18.0492 20.9366 18.0492H21.8052C22.1889 18.0492 22.5001 18.3603 22.5001 18.744C22.5001 19.1278 22.1889 19.4389 21.8052 19.4389H19.6337C19.0257 19.4389 19.0257 19.7419 19.0257 19.8419C19.0146 19.9945 19.0599 20.1458 19.1528 20.2672L21.4946 21.1428C22.1503 21.4553 22.5488 22.1364 22.5001 22.8612C22.5045 23.7704 21.8146 24.533 20.9095 24.6192C20.8249 24.6323 20.7625 24.7053 20.7629 24.7909V25.2585C20.7629 25.6423 20.4518 25.9534 20.068 25.9534C19.6842 25.9534 19.3731 25.6423 19.3731 25.2585V24.8242C19.3731 24.7283 19.2953 24.6505 19.1994 24.6505H18.3308C17.947 24.6505 17.6359 24.3394 17.6359 23.9556C17.6359 23.5718 17.947 23.2607 18.3308 23.2607H20.5023C21.1103 23.2607 21.1103 22.9578 21.1103 22.8577C21.1213 22.7052 21.0761 22.5539 20.9831 22.4324ZM27.5379 25.4322C27.5379 25.1444 27.3046 24.9111 27.0168 24.9111H23.5424C23.2545 24.9111 23.0212 25.1444 23.0212 25.4322C23.0212 25.7201 23.2545 25.9534 23.5424 25.9534H27.0168C27.3046 25.9534 27.5379 25.7201 27.5379 25.4322ZM24.411 22.3053C24.411 22.0175 24.6443 21.7841 24.9321 21.7841H27.0168C27.3046 21.7841 27.5379 22.0175 27.5379 22.3053C27.5379 22.5931 27.3046 22.8264 27.0168 22.8264H24.9321C24.6443 22.8264 24.411 22.5931 24.411 22.3053ZM27.5379 28.5592C27.5379 28.2714 27.3046 28.038 27.0168 28.038H20.068C19.7802 28.038 19.5468 28.2714 19.5468 28.5592C19.5468 28.847 19.7802 29.0803 20.068 29.0803H27.0168C27.3046 29.0803 27.5379 28.847 27.5379 28.5592Z" fill="#D97706"/>
<mask id="mask0_6055_8569" style="mask-type:alpha" maskUnits="userSpaceOnUse" x="15" y="14" width="15" height="18">
<path fill-rule="evenodd" clip-rule="evenodd" d="M29.1438 18.7294L25.381 14.9667C25.1852 14.7721 24.9205 14.6625 24.6444 14.6616H16.5936C16.0179 14.6616 15.5513 15.1283 15.5513 15.7039V30.2964C15.5513 30.872 16.0179 31.3387 16.5936 31.3387H29.1014C29.2933 31.3387 29.4488 31.1831 29.4488 30.9913V19.466C29.4495 19.1896 29.3397 18.9244 29.1438 18.7294ZM20.9831 22.4324L18.6414 21.5569C17.9869 21.2448 17.5886 20.5655 17.6359 19.8419C17.6296 18.9314 18.32 18.1668 19.2265 18.0804C19.3111 18.0674 19.3734 17.9944 19.3731 17.9088V17.4411C19.3731 17.0574 19.6842 16.7463 20.068 16.7463C20.4518 16.7463 20.7629 17.0574 20.7629 17.4411V17.8754C20.7629 17.9714 20.8406 18.0492 20.9366 18.0492H21.8052C22.1889 18.0492 22.5001 18.3603 22.5001 18.744C22.5001 19.1278 22.1889 19.4389 21.8052 19.4389H19.6337C19.0257 19.4389 19.0257 19.7419 19.0257 19.8419C19.0146 19.9945 19.0599 20.1458 19.1528 20.2672L21.4946 21.1428C22.1503 21.4553 22.5488 22.1364 22.5001 22.8612C22.5045 23.7704 21.8146 24.533 20.9095 24.6192C20.8249 24.6323 20.7625 24.7053 20.7629 24.7909V25.2585C20.7629 25.6423 20.4518 25.9534 20.068 25.9534C19.6842 25.9534 19.3731 25.6423 19.3731 25.2585V24.8242C19.3731 24.7283 19.2953 24.6505 19.1994 24.6505H18.3308C17.947 24.6505 17.6359 24.3394 17.6359 23.9556C17.6359 23.5718 17.947 23.2607 18.3308 23.2607H20.5023C21.1103 23.2607 21.1103 22.9578 21.1103 22.8577C21.1213 22.7052 21.0761 22.5539 20.9831 22.4324ZM27.5379 25.4322C27.5379 25.1444 27.3046 24.9111 27.0168 24.9111H23.5424C23.2545 24.9111 23.0212 25.1444 23.0212 25.4322C23.0212 25.7201 23.2545 25.9534 23.5424 25.9534H27.0168C27.3046 25.9534 27.5379 25.7201 27.5379 25.4322ZM24.411 22.3053C24.411 22.0175 24.6443 21.7841 24.9321 21.7841H27.0168C27.3046 21.7841 27.5379 22.0175 27.5379 22.3053C27.5379 22.5931 27.3046 22.8264 27.0168 22.8264H24.9321C24.6443 22.8264 24.411 22.5931 24.411 22.3053ZM27.5379 28.5592C27.5379 28.2714 27.3046 28.038 27.0168 28.038H20.068C19.7802 28.038 19.5468 28.2714 19.5468 28.5592C19.5468 28.847 19.7802 29.0803 20.068 29.0803H27.0168C27.3046 29.0803 27.5379 28.847 27.5379 28.5592Z" fill="white"/>
</mask>
<g mask="url(#mask0_6055_8569)">
</g>
</svg>
