<svg width="45" height="45" viewBox="0 0 45 45" fill="none" xmlns="http://www.w3.org/2000/svg">
<rect width="45" height="45" rx="4" fill="#ECEAF5"/>
<path d="M15.2084 21.4585V23.5418H17.2917V21.4585H15.2084ZM18.3334 21.4585V23.5418H20.4167V21.4585H18.3334ZM21.4584 21.4585V23.5418H23.5417V21.4585H21.4584ZM15.2084 18.3335V20.4168H17.2917V18.3335H15.2084ZM18.3334 18.3335V20.4168H20.4167V18.3335H18.3334ZM21.4584 18.3335V20.4168H23.5417V18.3335H21.4584ZM24.5834 18.3335V20.4168H26.6667V18.3335H24.5834ZM27.7084 18.3335V20.4168H29.7917V18.3335H27.7084ZM28.75 32.9168L27.2917 31.4585L28.9323 29.7918H24.5834V27.7085H28.9323L27.2917 26.0418L28.75 24.5835L32.9167 28.7502L28.75 32.9168ZM22.6042 29.7918H14.1667C13.5938 29.7918 13.1035 29.588 12.6959 29.1804C12.2875 28.772 12.0834 28.2814 12.0834 27.7085V17.2918C12.0834 16.7189 12.2875 16.2286 12.6959 15.821C13.1035 15.4127 13.5938 15.2085 14.1667 15.2085H30.8334C31.4063 15.2085 31.8969 15.4127 32.3052 15.821C32.7129 16.2286 32.9167 16.7189 32.9167 17.2918V24.0887C32.4653 23.6894 31.975 23.3637 31.4459 23.1116C30.916 22.8602 30.3646 22.6911 29.7917 22.6043V21.4585H27.7084V22.6043C27.5174 22.6391 27.3396 22.6738 27.175 22.7085C27.0098 22.7432 26.8403 22.7953 26.6667 22.8647V21.4585H24.5834V23.5418H25.3125C25.0868 23.6807 24.8785 23.8411 24.6875 24.0231C24.4966 24.2057 24.3056 24.3925 24.1146 24.5835H18.3334V26.6668H22.8646C22.7431 26.9967 22.6563 27.3352 22.6042 27.6825C22.5521 28.0297 22.5261 28.3856 22.5261 28.7502C22.5261 28.9411 22.5306 29.1189 22.5396 29.2835C22.548 29.4488 22.5695 29.6182 22.6042 29.7918Z" fill="#6756AE"/>
</svg>
