<svg width="45" height="45" viewBox="0 0 45 45" fill="none" xmlns="http://www.w3.org/2000/svg">
<rect y="0.5" width="45" height="45" rx="4" fill="#D0F9E3"/>
<path d="M14.1667 31.3332C13.5938 31.3332 13.1032 31.129 12.6948 30.7207C12.2865 30.3123 12.0827 29.8221 12.0834 29.2498V16.7498C12.0834 16.1769 12.2875 15.6863 12.6959 15.278C13.1042 14.8696 13.5945 14.6658 14.1667 14.6665H30.8334C31.4063 14.6665 31.8969 14.8707 32.3053 15.279C32.7136 15.6873 32.9174 16.1776 32.9167 16.7498V29.2498C32.9167 29.8228 32.7125 30.3134 32.3042 30.7217C31.8959 31.13 31.4056 31.3339 30.8334 31.3332H14.1667ZM14.1667 18.8332H30.8334V16.7498H14.1667V18.8332ZM21.4063 24.7186L19.974 23.2863C19.7657 23.078 19.5139 22.9738 19.2188 22.9738C18.9237 22.9738 18.6719 23.078 18.4636 23.2863C18.2553 23.4946 18.1511 23.7464 18.1511 24.0415C18.1511 24.3366 18.2553 24.5884 18.4636 24.7967L20.6771 27.0103C20.8855 27.2186 21.1285 27.3228 21.4063 27.3228C21.6841 27.3228 21.9271 27.2186 22.1355 27.0103L26.5365 22.6092C26.7448 22.4009 26.849 22.1491 26.849 21.854C26.849 21.5589 26.7448 21.3071 26.5365 21.0988C26.3282 20.8905 26.0764 20.7863 25.7813 20.7863C25.4862 20.7863 25.2344 20.8905 25.0261 21.0988L21.4063 24.7186Z" fill="#13837B"/>
</svg>
