<svg width="45" height="46" viewBox="0 0 45 46" fill="none" xmlns="http://www.w3.org/2000/svg">
<rect y="0.5" width="45" height="45" rx="4" fill="#D0E6F5"/>
<path fill-rule="evenodd" clip-rule="evenodd" d="M21.4577 30.5741C21.4577 30.766 21.3021 30.9215 21.1103 30.9215H14.8564C14.6645 30.9215 14.5089 30.766 14.5089 30.5741V29.5318C14.5089 29.148 14.82 28.8369 15.2038 28.8369H20.7628C21.1466 28.8369 21.4577 29.148 21.4577 29.5318V30.5741Z" stroke="#3D628D" stroke-width="3"/>
<path fill-rule="evenodd" clip-rule="evenodd" d="M20.7628 28.837H15.2037V28.1421C15.2037 27.7584 15.5148 27.4473 15.8986 27.4473H20.0679C20.4517 27.4473 20.7628 27.7584 20.7628 28.1421V28.837Z" stroke="#3D628D" stroke-width="3"/>
<rect x="19.0259" y="20.498" width="5.40477" height="3.43965" transform="rotate(-45 19.0259 20.498)" stroke="#3D628D" stroke-width="3"/>
<path d="M19.0256 20.4984L18.6782 20.1509C18.0236 19.4977 16.9792 20.5366 17.6358 21.1932L20.7628 24.3202C21.4181 24.9755 22.4625 23.9352 21.8051 23.2779L21.4577 22.9304" stroke="#3D628D" stroke-width="3"/>
<path d="M25.2795 19.1085L25.6269 19.4559C26.2822 20.1112 27.3266 19.071 26.6692 18.4136L23.5423 15.2867C22.8877 14.6335 21.8433 15.6723 22.5 16.329L22.8474 16.6764" stroke="#3D628D" stroke-width="3"/>
<path d="M23.3687 21.0186L30.4912 28.1411" stroke="#3D628D" stroke-width="3"/>
</svg>
