<svg width="45" height="45" viewBox="0 0 45 45" fill="none" xmlns="http://www.w3.org/2000/svg">
<rect width="45" height="45" rx="4" fill="#D0F9E3"/>
<path d="M24.5832 23.5415C25.4512 23.5415 26.1891 23.2377 26.7967 22.63C27.4044 22.0224 27.7082 21.2846 27.7082 20.4165C27.7082 19.5484 27.4044 18.8106 26.7967 18.203C26.1891 17.5953 25.4512 17.2915 24.5832 17.2915C23.7151 17.2915 22.9773 17.5953 22.3696 18.203C21.762 18.8106 21.4582 19.5484 21.4582 20.4165C21.4582 21.2846 21.762 22.0224 22.3696 22.63C22.9773 23.2377 23.7151 23.5415 24.5832 23.5415ZM17.2915 26.6665C16.7186 26.6665 16.2283 26.4623 15.8207 26.054C15.4123 25.6464 15.2082 25.1561 15.2082 24.5832V16.2498C15.2082 15.6769 15.4123 15.1866 15.8207 14.779C16.2283 14.3707 16.7186 14.1665 17.2915 14.1665H31.8748C32.4478 14.1665 32.9384 14.3707 33.3467 14.779C33.7544 15.1866 33.9582 15.6769 33.9582 16.2498V24.5832C33.9582 25.1561 33.7544 25.6464 33.3467 26.054C32.9384 26.4623 32.4478 26.6665 31.8748 26.6665H17.2915ZM13.1248 30.8332C12.5519 30.8332 12.0616 30.6294 11.654 30.2217C11.2457 29.8134 11.0415 29.3228 11.0415 28.7498V18.3332C11.0415 18.038 11.1415 17.7905 11.3415 17.5905C11.5408 17.3912 11.788 17.2915 12.0832 17.2915C12.3783 17.2915 12.6259 17.3912 12.8259 17.5905C13.0252 17.7905 13.1248 18.038 13.1248 18.3332V28.7498H29.7915C30.0866 28.7498 30.3339 28.8498 30.5332 29.0498C30.7332 29.2491 30.8332 29.4964 30.8332 29.7915C30.8332 30.0866 30.7332 30.3339 30.5332 30.5332C30.3339 30.7332 30.0866 30.8332 29.7915 30.8332H13.1248ZM17.2915 18.3332C17.8644 18.3332 18.3547 18.129 18.7623 17.7207C19.1707 17.313 19.3748 16.8228 19.3748 16.2498H17.2915V18.3332ZM31.8748 18.3332V16.2498H29.7915C29.7915 16.8228 29.9953 17.313 30.403 17.7207C30.8113 18.129 31.3019 18.3332 31.8748 18.3332ZM17.2915 24.5832H19.3748C19.3748 24.0103 19.1707 23.5196 18.7623 23.1113C18.3547 22.7037 17.8644 22.4998 17.2915 22.4998V24.5832ZM29.7915 24.5832H31.8748V22.4998C31.3019 22.4998 30.8113 22.7037 30.403 23.1113C29.9953 23.5196 29.7915 24.0103 29.7915 24.5832Z" fill="#13837B"/>
</svg>
