<svg width="45" height="45" viewBox="0 0 45 45" fill="none" xmlns="http://www.w3.org/2000/svg">
<rect width="45" height="45" rx="4" fill="#ECEAF5"/>
<path fill-rule="evenodd" clip-rule="evenodd" d="M22.1528 19.373C23.4481 19.373 24.498 18.3231 24.498 17.0278C24.498 15.7326 23.4481 14.6826 22.1528 14.6826C20.8576 14.6826 19.8076 15.7326 19.8076 17.0278C19.8076 18.3231 20.8576 19.373 22.1528 19.373Z" stroke="#6756AE" stroke-width="1.5"/>
<path d="M24.9691 21.4578C23.3718 20.0069 20.9337 20.0069 19.3364 21.4578" stroke="#6756AE" stroke-width="1.5"/>
<path d="M24.4981 17.1049C24.0746 17.227 23.636 17.2887 23.1952 17.2884C22.0191 17.2901 20.8856 16.8482 20.021 16.0508" stroke="#6756AE" stroke-width="1.5"/>
<path fill-rule="evenodd" clip-rule="evenodd" d="M27.0171 27.7114C28.3123 27.7114 29.3623 26.6614 29.3623 25.3662C29.3623 24.071 28.3123 23.021 27.0171 23.021C25.7219 23.021 24.6719 24.071 24.6719 25.3662C24.6719 26.6614 25.7219 27.7114 27.0171 27.7114Z" stroke="#6756AE" stroke-width="1.5"/>
<path d="M30.3177 30.3172C29.5241 29.3007 28.3065 28.7065 27.017 28.7065C25.7274 28.7065 24.5098 29.3007 23.7163 30.3172" stroke="#6756AE" stroke-width="1.5"/>
<path d="M29.3624 25.4433C27.7883 25.8966 26.0917 25.4971 24.8853 24.3892" stroke="#6756AE" stroke-width="1.5"/>
<path fill-rule="evenodd" clip-rule="evenodd" d="M17.9834 27.7114C19.2786 27.7114 20.3286 26.6614 20.3286 25.3662C20.3286 24.071 19.2786 23.021 17.9834 23.021C16.6882 23.021 15.6382 24.071 15.6382 25.3662C15.6382 26.6614 16.6882 27.7114 17.9834 27.7114Z" stroke="#6756AE" stroke-width="1.5"/>
<path d="M21.2835 30.3172C20.49 29.3007 19.2723 28.7065 17.9828 28.7065C16.6933 28.7065 15.4757 29.3007 14.6821 30.3172" stroke="#6756AE" stroke-width="1.5"/>
<path d="M20.3287 25.4433C18.7546 25.8966 17.0581 25.4971 15.8516 24.3892" stroke="#6756AE" stroke-width="1.5"/>
</svg>
