<svg width="45" height="45" viewBox="0 0 45 45" fill="none" xmlns="http://www.w3.org/2000/svg">
<rect width="45" height="45" rx="4" fill="#D0E6F5"/>
<rect x="10" y="12" width="24" height="18" rx="4" fill="#3D628D"/>
<path d="M17.1309 25H15.6221V20.8691C15.6221 20.7552 15.6237 20.6152 15.627 20.4492C15.6302 20.2799 15.6351 20.1074 15.6416 19.9316C15.6481 19.7526 15.6546 19.5915 15.6611 19.4482C15.6253 19.4906 15.5521 19.5638 15.4414 19.668C15.334 19.7689 15.2331 19.86 15.1387 19.9414L14.3184 20.6006L13.5908 19.6924L15.8906 17.8613H17.1309V25ZM24.0742 21.4307C24.0742 22.0068 24.0286 22.5212 23.9375 22.9736C23.8496 23.4261 23.7064 23.8102 23.5078 24.126C23.3125 24.4417 23.0553 24.6826 22.7363 24.8486C22.4173 25.0146 22.0299 25.0977 21.5742 25.0977C21.0013 25.0977 20.5309 24.9528 20.1631 24.6631C19.7952 24.3701 19.5234 23.9502 19.3477 23.4033C19.1719 22.8532 19.084 22.1956 19.084 21.4307C19.084 20.6592 19.1637 20 19.3232 19.4531C19.486 18.903 19.7497 18.4814 20.1143 18.1885C20.4788 17.8955 20.9655 17.749 21.5742 17.749C22.1439 17.749 22.6126 17.8955 22.9805 18.1885C23.3516 18.4782 23.6266 18.8981 23.8057 19.4482C23.9847 19.9951 24.0742 20.6559 24.0742 21.4307ZM20.583 21.4307C20.583 21.9743 20.6123 22.4284 20.6709 22.793C20.7327 23.1543 20.8353 23.4261 20.9785 23.6084C21.1217 23.7907 21.3203 23.8818 21.5742 23.8818C21.8249 23.8818 22.0218 23.7923 22.165 23.6133C22.3115 23.431 22.4157 23.1592 22.4775 22.7979C22.5394 22.4333 22.5703 21.9775 22.5703 21.4307C22.5703 20.887 22.5394 20.4329 22.4775 20.0684C22.4157 19.7038 22.3115 19.4303 22.165 19.248C22.0218 19.0625 21.8249 18.9697 21.5742 18.9697C21.3203 18.9697 21.1217 19.0625 20.9785 19.248C20.8353 19.4303 20.7327 19.7038 20.6709 20.0684C20.6123 20.4329 20.583 20.887 20.583 21.4307ZM29.7969 21.4307C29.7969 22.0068 29.7513 22.5212 29.6602 22.9736C29.5723 23.4261 29.429 23.8102 29.2305 24.126C29.0352 24.4417 28.778 24.6826 28.459 24.8486C28.14 25.0146 27.7526 25.0977 27.2969 25.0977C26.724 25.0977 26.2536 24.9528 25.8857 24.6631C25.5179 24.3701 25.2461 23.9502 25.0703 23.4033C24.8945 22.8532 24.8066 22.1956 24.8066 21.4307C24.8066 20.6592 24.8864 20 25.0459 19.4531C25.2087 18.903 25.4723 18.4814 25.8369 18.1885C26.2015 17.8955 26.6882 17.749 27.2969 17.749C27.8665 17.749 28.3353 17.8955 28.7031 18.1885C29.0742 18.4782 29.3493 18.8981 29.5283 19.4482C29.7074 19.9951 29.7969 20.6559 29.7969 21.4307ZM26.3057 21.4307C26.3057 21.9743 26.335 22.4284 26.3936 22.793C26.4554 23.1543 26.5579 23.4261 26.7012 23.6084C26.8444 23.7907 27.043 23.8818 27.2969 23.8818C27.5475 23.8818 27.7445 23.7923 27.8877 23.6133C28.0342 23.431 28.1383 23.1592 28.2002 22.7979C28.262 22.4333 28.293 21.9775 28.293 21.4307C28.293 20.887 28.262 20.4329 28.2002 20.0684C28.1383 19.7038 28.0342 19.4303 27.8877 19.248C27.7445 19.0625 27.5475 18.9697 27.2969 18.9697C27.043 18.9697 26.8444 19.0625 26.7012 19.248C26.5579 19.4303 26.4554 19.7038 26.3936 20.0684C26.335 20.4329 26.3057 20.887 26.3057 21.4307Z" fill="white"/>
</svg>
