<svg width="45" height="45" viewBox="0 0 45 45" fill="none" xmlns="http://www.w3.org/2000/svg">
<rect width="45" height="45" rx="4" fill="#D0F9E3"/>
<path fill-rule="evenodd" clip-rule="evenodd" d="M29.0513 21.0108C28.8471 20.6945 28.679 20.3563 28.5503 20.0025C28.5496 16.346 25.1711 14.1613 21.9045 14.1613C20.0497 14.1471 18.2674 14.8806 16.96 16.1962C15.6525 17.5118 14.93 19.2986 14.9557 21.1532C14.9557 23.6548 15.891 25.5143 17.7352 26.683V30.491C17.7352 30.6829 17.8907 30.8384 18.0826 30.8384H25.0314C25.2233 30.8384 25.3789 30.6829 25.3789 30.491V28.4223C26.5872 28.4098 27.3245 28.2771 27.8617 27.7407C28.4426 27.1597 28.5253 25.4198 28.5301 24.5942C28.5764 24.5942 28.6256 24.5944 28.6766 24.5947H28.6767C28.8554 24.5954 29.0567 24.5962 29.2361 24.5887C29.503 24.5787 29.7502 24.4455 29.9053 24.228C30.0036 24.0746 30.0499 23.8936 30.0373 23.7117V23.6159C30.0957 22.8404 29.5412 21.8682 29.0513 21.0108ZM22.1525 26.3217C21.5769 26.3217 21.1102 25.855 21.1102 25.2794C21.1102 24.7037 21.5769 24.2371 22.1525 24.2371C22.7282 24.2371 23.1949 24.7037 23.1949 25.2794C23.1949 25.855 22.7282 26.3217 22.1525 26.3217ZM22.8474 22.7341C22.8473 22.4576 23.011 22.2074 23.2643 22.0968V22.0975C24.5367 21.5423 25.2042 20.1334 24.8281 18.797C24.452 17.4607 23.1476 16.6068 21.7724 16.7967C20.3972 16.9865 19.373 18.1619 19.373 19.5501C19.373 19.9339 19.6841 20.245 20.0679 20.245C20.4517 20.245 20.7628 19.9339 20.7628 19.5501C20.7624 18.8559 21.2744 18.2679 21.962 18.1728C22.6497 18.0776 23.3021 18.5045 23.4903 19.1727C23.6784 19.8409 23.3447 20.5455 22.7084 20.8231C21.9486 21.1547 21.4575 21.905 21.4577 22.7341C21.4577 23.1178 21.7688 23.4289 22.1525 23.4289C22.5363 23.4289 22.8474 23.1178 22.8474 22.7341Z" fill="#13837B"/>
<mask id="mask0_6055_6227" style="mask-type:alpha" maskUnits="userSpaceOnUse" x="14" y="14" width="17" height="17">
<path fill-rule="evenodd" clip-rule="evenodd" d="M29.0513 21.0108C28.8471 20.6945 28.679 20.3563 28.5503 20.0025C28.5496 16.346 25.1711 14.1613 21.9045 14.1613C20.0497 14.1471 18.2674 14.8806 16.96 16.1962C15.6525 17.5118 14.93 19.2986 14.9557 21.1532C14.9557 23.6548 15.891 25.5143 17.7352 26.683V30.491C17.7352 30.6829 17.8907 30.8384 18.0826 30.8384H25.0314C25.2233 30.8384 25.3789 30.6829 25.3789 30.491V28.4223C26.5872 28.4098 27.3245 28.2771 27.8617 27.7407C28.4426 27.1597 28.5253 25.4198 28.5301 24.5942C28.5764 24.5942 28.6256 24.5944 28.6766 24.5947H28.6767C28.8554 24.5954 29.0567 24.5962 29.2361 24.5887C29.503 24.5787 29.7502 24.4455 29.9053 24.228C30.0036 24.0746 30.0499 23.8936 30.0373 23.7117V23.6159C30.0957 22.8404 29.5412 21.8682 29.0513 21.0108ZM22.1525 26.3217C21.5769 26.3217 21.1102 25.855 21.1102 25.2794C21.1102 24.7037 21.5769 24.2371 22.1525 24.2371C22.7282 24.2371 23.1949 24.7037 23.1949 25.2794C23.1949 25.855 22.7282 26.3217 22.1525 26.3217ZM22.8474 22.7341C22.8473 22.4576 23.011 22.2074 23.2643 22.0968V22.0975C24.5367 21.5423 25.2042 20.1334 24.8281 18.797C24.452 17.4607 23.1476 16.6068 21.7724 16.7967C20.3972 16.9865 19.373 18.1619 19.373 19.5501C19.373 19.9339 19.6841 20.245 20.0679 20.245C20.4517 20.245 20.7628 19.9339 20.7628 19.5501C20.7624 18.8559 21.2744 18.2679 21.962 18.1728C22.6497 18.0776 23.3021 18.5045 23.4903 19.1727C23.6784 19.8409 23.3447 20.5455 22.7084 20.8231C21.9486 21.1547 21.4575 21.905 21.4577 22.7341C21.4577 23.1178 21.7688 23.4289 22.1525 23.4289C22.5363 23.4289 22.8474 23.1178 22.8474 22.7341Z" fill="white"/>
</mask>
<g mask="url(#mask0_6055_6227)">
</g>
</svg>
