<svg width="45" height="45" viewBox="0 0 45 45" fill="none" xmlns="http://www.w3.org/2000/svg">
<rect width="45" height="45" rx="4" fill="#ECEAF5"/>
<path fill-rule="evenodd" clip-rule="evenodd" d="M22.1525 19.373C23.4477 19.373 24.4977 18.3231 24.4977 17.0278C24.4977 15.7326 23.4477 14.6826 22.1525 14.6826C20.8572 14.6826 19.8073 15.7326 19.8073 17.0278C19.8073 18.3231 20.8572 19.373 22.1525 19.373Z" stroke="#6756AE" stroke-width="1.5"/>
<path d="M24.9689 21.4578C23.3716 20.0069 20.9335 20.0069 19.3362 21.4578" stroke="#6756AE" stroke-width="1.5"/>
<path d="M24.4977 17.1049C24.0742 17.227 23.6356 17.2887 23.1948 17.2884C22.0187 17.2901 20.8852 16.8482 20.0206 16.0508" stroke="#6756AE" stroke-width="1.5"/>
<path fill-rule="evenodd" clip-rule="evenodd" d="M27.0167 27.7114C28.312 27.7114 29.3619 26.6614 29.3619 25.3662C29.3619 24.071 28.312 23.021 27.0167 23.021C25.7215 23.021 24.6715 24.071 24.6715 25.3662C24.6715 26.6614 25.7215 27.7114 27.0167 27.7114Z" stroke="#6756AE" stroke-width="1.5"/>
<path d="M30.3173 30.3172C29.5238 29.3007 28.3062 28.7065 27.0166 28.7065C25.7271 28.7065 24.5095 29.3007 23.7159 30.3172" stroke="#6756AE" stroke-width="1.5"/>
<path d="M29.3619 25.4433C27.7878 25.8966 26.0913 25.4971 24.8848 24.3892" stroke="#6756AE" stroke-width="1.5"/>
<path fill-rule="evenodd" clip-rule="evenodd" d="M17.9833 27.7114C19.2785 27.7114 20.3285 26.6614 20.3285 25.3662C20.3285 24.071 19.2785 23.021 17.9833 23.021C16.688 23.021 15.6381 24.071 15.6381 25.3662C15.6381 26.6614 16.688 27.7114 17.9833 27.7114Z" stroke="#6756AE" stroke-width="1.5"/>
<path d="M21.2832 30.3172C20.4897 29.3007 19.2721 28.7065 17.9826 28.7065C16.693 28.7065 15.4754 29.3007 14.6819 30.3172" stroke="#6756AE" stroke-width="1.5"/>
<path d="M20.3284 25.4433C18.7543 25.8966 17.0578 25.4971 15.8513 24.3892" stroke="#6756AE" stroke-width="1.5"/>
</svg>
