<svg width="45" height="45" viewBox="0 0 45 45" fill="none" xmlns="http://www.w3.org/2000/svg">
<rect width="45" height="45" rx="4" fill="#D0F9E3"/>
<path d="M24.5834 23.5415C25.4514 23.5415 26.1893 23.2377 26.7969 22.63C27.4045 22.0224 27.7084 21.2846 27.7084 20.4165C27.7084 19.5484 27.4045 18.8106 26.7969 18.203C26.1893 17.5953 25.4514 17.2915 24.5834 17.2915C23.7153 17.2915 22.9775 17.5953 22.3698 18.203C21.7622 18.8106 21.4584 19.5484 21.4584 20.4165C21.4584 21.2846 21.7622 22.0224 22.3698 22.63C22.9775 23.2377 23.7153 23.5415 24.5834 23.5415ZM17.2917 26.6665C16.7188 26.6665 16.2285 26.4623 15.8209 26.054C15.4125 25.6464 15.2084 25.1561 15.2084 24.5832V16.2498C15.2084 15.6769 15.4125 15.1866 15.8209 14.779C16.2285 14.3707 16.7188 14.1665 17.2917 14.1665H31.875C32.4479 14.1665 32.9386 14.3707 33.3469 14.779C33.7545 15.1866 33.9584 15.6769 33.9584 16.2498V24.5832C33.9584 25.1561 33.7545 25.6464 33.3469 26.054C32.9386 26.4623 32.4479 26.6665 31.875 26.6665H17.2917ZM13.125 30.8332C12.5521 30.8332 12.0618 30.6294 11.6542 30.2217C11.2459 29.8134 11.0417 29.3228 11.0417 28.7498V18.3332C11.0417 18.038 11.1417 17.7905 11.3417 17.5905C11.541 17.3912 11.7882 17.2915 12.0834 17.2915C12.3785 17.2915 12.6261 17.3912 12.8261 17.5905C13.0254 17.7905 13.125 18.038 13.125 18.3332V28.7498H29.7917C30.0868 28.7498 30.334 28.8498 30.5334 29.0498C30.7334 29.2491 30.8334 29.4964 30.8334 29.7915C30.8334 30.0866 30.7334 30.3339 30.5334 30.5332C30.334 30.7332 30.0868 30.8332 29.7917 30.8332H13.125ZM17.2917 18.3332C17.8646 18.3332 18.3549 18.129 18.7625 17.7207C19.1709 17.313 19.375 16.8228 19.375 16.2498H17.2917V18.3332ZM31.875 18.3332V16.2498H29.7917C29.7917 16.8228 29.9955 17.313 30.4031 17.7207C30.8115 18.129 31.3021 18.3332 31.875 18.3332ZM17.2917 24.5832H19.375C19.375 24.0103 19.1709 23.5196 18.7625 23.1113C18.3549 22.7037 17.8646 22.4998 17.2917 22.4998V24.5832ZM29.7917 24.5832H31.875V22.4998C31.3021 22.4998 30.8115 22.7037 30.4031 23.1113C29.9955 23.5196 29.7917 24.0103 29.7917 24.5832Z" fill="#13837B"/>
</svg>
