<svg width="45" height="45" viewBox="0 0 45 45" fill="none" xmlns="http://www.w3.org/2000/svg">
<rect width="45" height="45" rx="4" fill="#ECEAF5"/>
<path d="M25.2285 21.1991C25.8691 21.746 26.8359 21.6815 27.3672 21.0487C27.7441 20.5975 27.8418 20.0428 27.7383 19.5116C27.498 18.2772 26.209 17.2245 25.0332 18.1522C24.4863 18.5839 24.3828 19.2518 24.4668 19.91C24.5312 20.4139 24.8496 20.8729 25.2285 21.1991ZM28.8574 20.4491C30.0859 20.83 30.5136 18.9198 29.7187 18.246C29.4843 18.0487 29.2597 17.9921 29.0566 18.0292C28.4101 18.1522 27.9883 19.246 28.2636 19.8807C28.3769 20.1464 28.58 20.3651 28.8574 20.4491ZM32.3379 19.2421C32.0175 18.7069 31.3242 18.785 30.9121 19.1268C30.3965 19.5526 30.3476 20.4862 30.8027 20.951C31.7129 21.8807 32.8496 20.0975 32.3379 19.2421ZM33.3847 20.5624C32.9746 20.5428 32.6093 20.8827 32.3867 21.1854C32.1797 21.4647 32.0293 21.8085 32.1718 22.1385C32.2363 22.285 32.3164 22.3573 32.4648 22.4139C33.7754 22.9139 34.7422 20.6288 33.3847 20.5624ZM33.7441 22.744C33.4218 22.9628 33.0097 23.3534 33.0722 23.7792C33.1269 24.1522 33.5703 24.3514 33.9121 24.2928C34.4609 24.1952 34.8808 23.9198 34.875 23.3182C34.8672 22.7089 34.2363 22.41 33.7441 22.744ZM27.205 21.8671C25.6484 22.7128 25.0605 24.6659 25.5175 26.3104C25.6679 26.8475 25.8105 27.4276 25.4804 27.9296C25.1992 28.3573 24.6992 28.6268 24.2929 28.9159C23.7168 29.3241 23.0039 29.6229 22.5547 30.1835C21.9648 30.9178 21.8027 32.2069 22.25 33.0253C22.4804 33.4452 23.1211 33.8534 23.5605 34.0038C24.0996 34.1874 24.6875 34.1444 25.2343 34.0155C26.4765 33.7225 27.4863 32.912 28.3965 32.0585C29.3496 31.1639 30.2754 30.1952 31.0273 29.121C32.3164 27.2792 33.2734 24.7538 31.6914 22.7714C30.7871 21.6405 28.4375 21.1971 27.205 21.8671ZM22.3769 13.3085C22.1445 12.955 21.7812 12.6932 21.3789 12.5604C20.83 12.3768 20.2109 12.4354 19.7558 12.83C19.3476 13.1835 18.9336 13.9608 18.8945 14.5077C18.8535 15.0956 19 15.7772 19.459 16.1737C19.6543 16.3436 19.9043 16.4413 20.1445 16.4471C20.2363 16.4628 20.33 16.4706 20.4258 16.4628C20.9902 16.41 21.5175 16.1053 21.9375 15.7401C22.5781 15.1874 22.8457 14.0175 22.3769 13.3085ZM17.8066 14.3573C18.5722 14.0311 18.9472 12.91 18.6504 12.2167C18.4922 11.8475 18.1445 11.6014 17.5644 11.662C16.0488 11.8163 16.084 15.0917 17.8066 14.3573Z" fill="#6756AE"/>
<path d="M14.3047 14.1326C15.8379 15.4236 16.7266 12.1912 15.1465 11.7166C14.5352 11.531 13.9375 11.9607 13.7949 12.6658C13.6816 13.2166 13.8789 13.7751 14.3047 14.1326ZM13.4297 15.0505C13.9707 14.5369 13.7363 13.6248 13.1953 13.1794C12.9199 12.9509 12.5645 12.8455 12.1934 12.9744C12.0664 13.0173 11.9395 13.1755 11.8613 13.281C11.2187 14.1541 12.5195 15.9119 13.4297 15.0505ZM10.3828 14.9568C9.48633 15.8298 11.1582 17.6501 12.0664 16.7068C12.4785 16.2771 12.248 15.5798 11.8691 15.2283C11.5234 14.908 10.7852 14.5642 10.3828 14.9568ZM19.6289 24.5193C18.8613 23.5486 18.6562 22.4724 19.0898 21.3064C19.3613 20.574 19.8066 19.947 19.9102 19.156C20.1523 17.3103 18.752 15.5271 16.8984 15.3572C16.3535 15.3064 15.6758 15.3181 15.1465 15.4666C14.3027 15.7048 13.334 16.2087 12.8301 16.9451C12.1016 18.0095 12.2598 19.4255 12.4648 20.6248C12.666 21.8084 12.9277 22.9744 13.3789 24.0896C14.0664 25.781 14.8867 27.6912 16.1602 29.033C16.4863 29.3767 16.8613 29.6814 17.2832 29.9001C18.0039 30.2732 18.8437 30.4548 19.6367 30.2166C19.7617 30.1794 19.8848 30.1306 20.0039 30.074C20.7656 29.7048 21.4785 28.9587 21.5977 28.1033C21.7012 27.3669 21.4199 26.7341 21.0117 26.1599C20.5957 25.572 20.043 25.0427 19.6289 24.5193Z" fill="#6756AE"/>
</svg>
