<svg width="45" height="46" viewBox="0 0 45 46" fill="none" xmlns="http://www.w3.org/2000/svg">
<rect y="0.5" width="45" height="45" rx="4" fill="#D0E6F5"/>
<path fill-rule="evenodd" clip-rule="evenodd" d="M22.5 29.7375C22.7274 29.7374 22.9391 29.6215 23.0617 29.43C24.3678 27.3867 27.4057 22.4016 27.4057 20.2335C27.4057 17.5238 25.2091 15.3271 22.4993 15.3271C19.7896 15.3271 17.5929 17.5238 17.5929 20.2335C17.5929 22.4016 20.6308 27.3873 21.9376 29.43C22.0597 29.6224 22.2721 29.7385 22.5 29.7375ZM25.6526 27.5261C25.2855 27.4952 24.9628 27.7677 24.9318 28.1348C24.9009 28.5019 25.1734 28.8247 25.5406 28.8556C26.3868 28.9179 27.2282 29.0345 28.0595 29.2045C28.1357 29.2215 28.1899 29.2891 28.1899 29.3673C28.1899 29.4454 28.1357 29.513 28.0595 29.53C26.228 29.882 24.3646 30.0409 22.5 30.0043C20.6356 30.0409 18.7725 29.8819 16.9412 29.53C16.865 29.513 16.8107 29.4454 16.8107 29.3673C16.8107 29.2891 16.865 29.2215 16.9412 29.2045C17.7637 29.0359 18.5961 28.92 19.4334 28.8576C19.7924 28.817 20.0538 28.498 20.0231 28.138C19.9923 27.7781 19.6807 27.508 19.32 27.5288C14.495 27.9364 14.495 28.937 14.495 29.3666C14.495 31.1464 20.0431 31.3385 22.5 31.3385C24.9569 31.3385 30.505 31.1464 30.505 29.3666C30.505 28.937 30.505 27.9364 25.6526 27.5261ZM22.5 17.6633C21.2105 17.6633 20.1652 18.7086 20.1652 19.9981C20.1652 21.2875 21.2105 22.3329 22.5 22.3329C23.7895 22.3329 24.8348 21.2875 24.8348 19.9981C24.8348 18.7086 23.7895 17.6633 22.5 17.6633Z" fill="#3D628D"/>
<mask id="mask0_6055_9647" style="mask-type:alpha" maskUnits="userSpaceOnUse" x="14" y="15" width="17" height="17">
<path fill-rule="evenodd" clip-rule="evenodd" d="M22.5 29.7375C22.7274 29.7374 22.9391 29.6215 23.0617 29.43C24.3678 27.3867 27.4057 22.4016 27.4057 20.2335C27.4057 17.5238 25.2091 15.3271 22.4993 15.3271C19.7896 15.3271 17.5929 17.5238 17.5929 20.2335C17.5929 22.4016 20.6308 27.3873 21.9376 29.43C22.0597 29.6224 22.2721 29.7385 22.5 29.7375ZM25.6526 27.5261C25.2855 27.4952 24.9628 27.7677 24.9318 28.1348C24.9009 28.5019 25.1734 28.8247 25.5406 28.8556C26.3868 28.9179 27.2282 29.0345 28.0595 29.2045C28.1357 29.2215 28.1899 29.2891 28.1899 29.3673C28.1899 29.4454 28.1357 29.513 28.0595 29.53C26.228 29.882 24.3646 30.0409 22.5 30.0043C20.6356 30.0409 18.7725 29.8819 16.9412 29.53C16.865 29.513 16.8107 29.4454 16.8107 29.3673C16.8107 29.2891 16.865 29.2215 16.9412 29.2045C17.7637 29.0359 18.5961 28.92 19.4334 28.8576C19.7924 28.817 20.0538 28.498 20.0231 28.138C19.9923 27.7781 19.6807 27.508 19.32 27.5288C14.495 27.9364 14.495 28.937 14.495 29.3666C14.495 31.1464 20.0431 31.3385 22.5 31.3385C24.9569 31.3385 30.505 31.1464 30.505 29.3666C30.505 28.937 30.505 27.9364 25.6526 27.5261ZM22.5 17.6633C21.2105 17.6633 20.1652 18.7086 20.1652 19.9981C20.1652 21.2875 21.2105 22.3329 22.5 22.3329C23.7895 22.3329 24.8348 21.2875 24.8348 19.9981C24.8348 18.7086 23.7895 17.6633 22.5 17.6633Z" fill="white"/>
</mask>
<g mask="url(#mask0_6055_9647)">
</g>
</svg>
